STARTFONT 2.1
COMMENT Source: 
COMMENT -Misc-Fixed-Medium-R-Normal--20-200-75-75-C-100-ISO10646-1 $ucs-fonts: 10x20.bdf,v 1.91 2009-04-06 19:10:19+01 mgk25 Rel $
FONT -dylex-terminal-Medium-O-Normal--40-400-75-75-C-200-ISO10646-1
SIZE 40 75 75
FONTBOUNDINGBOX 20 40 0 -8
STARTPROPERTIES 22
FONTNAME_REGISTRY ""
FOUNDRY "dylex"
FAMILY_NAME "terminal"
WEIGHT_NAME "Medium"
SLANT "O"
SETWIDTH_NAME "Normal"
ADD_STYLE_NAME ""
PIXEL_SIZE 40
POINT_SIZE 400
RESOLUTION_X 75
RESOLUTION_Y 75
SPACING "C"
AVERAGE_WIDTH 200
CHARSET_REGISTRY "ISO10646"
CHARSET_ENCODING "1"
DEFAULT_CHAR 0
FONT_DESCENT 8
FONT_ASCENT 32
X_HEIGHT 16
CAP_HEIGHT 26
COPYRIGHT "Public domain font.  Share and enjoy."
_GBDFED_INFO "Edited with gbdfed 1.6."
ENDPROPERTIES
CHARS 250
STARTCHAR char0
ENCODING 0
SWIDTH 960 0
DWIDTH 20 0
BBX 20 40 0 -8
BITMAP
00000000
00000000
0CCCC000
0CCCC000
00003000
00003000
0C000000
0C000000
00003000
00003000
0C000000
0C000000
0000C000
0000C000
30000000
30000000
0000C000
0000C000
30000000
30000000
0000C000
0000C000
30000000
30000000
0000C000
0000C000
C0000000
C0000000
00030000
00030000
C0000000
C0000000
00030000
00030000
C0000000
C0000000
33330000
33330000
00000000
00000000
ENDCHAR
STARTCHAR uni25C6
ENCODING 1
SWIDTH 960 0
DWIDTH 20 0
BBX 20 40 0 -8
BITMAP
00000000
00000000
00000000
00000000
00000000
00000000
00000000
00000000
00000000
00000000
00000000
00000000
00C00000
00C00000
03300000
03300000
0C0C0000
0C0C0000
30030000
30030000
C000C000
C000C000
30030000
30030000
0C0C0000
0C0C0000
03300000
03300000
00C00000
00C00000
00000000
00000000
00000000
00000000
00000000
00000000
00000000
00000000
00000000
00000000
ENDCHAR
STARTCHAR shade
ENCODING 2
SWIDTH 960 0
DWIDTH 20 0
BBX 20 40 0 -8
BITMAP
00000000
00000000
CCCCC000
CCCCC000
00000000
00000000
33333000
33333000
00000000
00000000
CCCCC000
CCCCC000
00000000
00000000
33333000
33333000
00000000
00000000
CCCCC000
CCCCC000
00000000
00000000
33333000
33333000
00000000
00000000
CCCCC000
CCCCC000
00000000
00000000
33333000
33333000
00000000
00000000
CCCCC000
CCCCC000
00000000
00000000
33333000
33333000
ENDCHAR
STARTCHAR uni2409
ENCODING 3
SWIDTH 960 0
DWIDTH 20 0
BBX 20 40 0 -8
BITMAP
00000000
00000000
00000000
00000000
3C3C0000
3C3C0000
3C3C0000
3C3C0000
3C3C0000
3C3C0000
3FFC0000
3FFC0000
3C3C0000
3C3C0000
3C3C0000
3C3C0000
3C3C0000
3C3C0000
00000000
00000000
03FFC000
03FFC000
003C0000
003C0000
003C0000
003C0000
003C0000
003C0000
003C0000
003C0000
003C0000
003C0000
00000000
00000000
00000000
00000000
00000000
00000000
00000000
00000000
ENDCHAR
STARTCHAR uni240C
ENCODING 4
SWIDTH 960 0
DWIDTH 20 0
BBX 20 40 0 -8
BITMAP
00000000
00000000
00000000
00000000
3FF00000
3FF00000
3C000000
3C000000
3C000000
3C000000
3FC00000
3FC00000
3C000000
3C000000
3C000000
3C000000
3C000000
3C000000
00FFC000
00FFC000
00F00000
00F00000
00F00000
00F00000
00FF0000
00FF0000
00F00000
00F00000
00F00000
00F00000
00F00000
00F00000
00000000
00000000
00000000
00000000
00000000
00000000
00000000
00000000
ENDCHAR
STARTCHAR uni240D
ENCODING 5
SWIDTH 960 0
DWIDTH 20 0
BBX 20 40 0 -8
BITMAP
00000000
00000000
00000000
00000000
0FF00000
0FF00000
3C3C0000
3C3C0000
3C000000
3C000000
3C000000
3C000000
3C3C0000
3C3C0000
0FF00000
0FF00000
00000000
00000000
03FF0000
03FF0000
03C3C000
03C3C000
03C3C000
03C3C000
03FF0000
03FF0000
03FC0000
03FC0000
03CF0000
03CF0000
03C3C000
03C3C000
00000000
00000000
00000000
00000000
00000000
00000000
00000000
00000000
ENDCHAR
STARTCHAR uni240A
ENCODING 6
SWIDTH 960 0
DWIDTH 20 0
BBX 20 40 0 -8
BITMAP
00000000
00000000
00000000
00000000
0F000000
0F000000
0F000000
0F000000
0F000000
0F000000
0F000000
0F000000
0F000000
0F000000
0FFC0000
0FFC0000
00000000
00000000
00FFC000
00FFC000
00F00000
00F00000
00F00000
00F00000
00FF0000
00FF0000
00F00000
00F00000
00F00000
00F00000
00F00000
00F00000
00000000
00000000
00000000
00000000
00000000
00000000
00000000
00000000
ENDCHAR
STARTCHAR degree
ENCODING 7
SWIDTH 960 0
DWIDTH 20 0
BBX 20 40 0 -8
BITMAP
00000000
00000000
00000000
00000000
00000000
00000000
03C00000
03C00000
0C300000
0C300000
0C300000
0C300000
0C300000
0C300000
03C00000
03C00000
00000000
00000000
00000000
00000000
00000000
00000000
00000000
00000000
00000000
00000000
00000000
00000000
00000000
00000000
00000000
00000000
00000000
00000000
00000000
00000000
00000000
00000000
00000000
00000000
ENDCHAR
STARTCHAR plusminus
ENCODING 8
SWIDTH 960 0
DWIDTH 20 0
BBX 20 40 0 -8
BITMAP
00000000
00000000
00000000
00000000
00000000
00000000
00000000
00000000
00000000
00000000
00000000
00000000
00300000
00300000
00300000
00300000
00300000
00300000
3FFFC000
3FFFC000
00C00000
00C00000
00C00000
00C00000
00C00000
00C00000
3FFF0000
3FFF0000
00000000
00000000
00000000
00000000
00000000
00000000
00000000
00000000
00000000
00000000
00000000
00000000
ENDCHAR
STARTCHAR uni2424
ENCODING 9
SWIDTH 960 0
DWIDTH 20 0
BBX 20 40 0 -8
BITMAP
00000000
00000000
00000000
00000000
3C3C0000
3C3C0000
3F3C0000
3F3C0000
3FFC0000
3FFC0000
3FFC0000
3FFC0000
3CFC0000
3CFC0000
3C3C0000
3C3C0000
00000000
00000000
00F00000
00F00000
00F00000
00F00000
00F00000
00F00000
00F00000
00F00000
00F00000
00F00000
00F00000
00F00000
00FFC000
00FFC000
00000000
00000000
00000000
00000000
00000000
00000000
00000000
00000000
ENDCHAR
STARTCHAR uni240B
ENCODING 10
SWIDTH 960 0
DWIDTH 20 0
BBX 20 40 0 -8
BITMAP
00000000
00000000
00000000
00000000
3C3C0000
3C3C0000
3C3C0000
3C3C0000
3C3C0000
3C3C0000
0FF00000
0FF00000
0FF00000
0FF00000
03C00000
03C00000
03C00000
03C00000
00000000
00000000
03FFC000
03FFC000
003C0000
003C0000
003C0000
003C0000
003C0000
003C0000
003C0000
003C0000
003C0000
003C0000
00000000
00000000
00000000
00000000
00000000
00000000
00000000
00000000
ENDCHAR
STARTCHAR char11
ENCODING 11
SWIDTH 960 0
DWIDTH 20 0
BBX 20 40 0 -8
BITMAP
00C00000
00C00000
00C00000
00C00000
00C00000
00C00000
00C00000
00C00000
00C00000
00C00000
00C00000
00C00000
00C00000
00C00000
00C00000
00C00000
00C00000
00C00000
FFC00000
FFC00000
00000000
00000000
00000000
00000000
00000000
00000000
00000000
00000000
00000000
00000000
00000000
00000000
00000000
00000000
00000000
00000000
00000000
00000000
00000000
00000000
ENDCHAR
STARTCHAR char15
ENCODING 12
SWIDTH 960 0
DWIDTH 20 0
BBX 20 40 0 -8
BITMAP
00000000
00000000
00000000
00000000
00000000
00000000
00000000
00000000
00000000
00000000
00000000
00000000
00000000
00000000
00000000
00000000
00000000
00000000
FFC00000
FFC00000
00C00000
00C00000
00C00000
00C00000
00C00000
00C00000
00C00000
00C00000
00C00000
00C00000
00C00000
00C00000
00C00000
00C00000
00C00000
00C00000
00C00000
00C00000
00C00000
00C00000
ENDCHAR
STARTCHAR char12
ENCODING 13
SWIDTH 960 0
DWIDTH 20 0
BBX 20 40 0 -8
BITMAP
00000000
00000000
00000000
00000000
00000000
00000000
00000000
00000000
00000000
00000000
00000000
00000000
00000000
00000000
00000000
00000000
00000000
00000000
00FFF000
00FFF000
00C00000
00C00000
00C00000
00C00000
00C00000
00C00000
00C00000
00C00000
00C00000
00C00000
00C00000
00C00000
00C00000
00C00000
00C00000
00C00000
00C00000
00C00000
00C00000
00C00000
ENDCHAR
STARTCHAR char13
ENCODING 14
SWIDTH 960 0
DWIDTH 20 0
BBX 20 40 0 -8
BITMAP
00C00000
00C00000
00C00000
00C00000
00C00000
00C00000
00C00000
00C00000
00C00000
00C00000
00C00000
00C00000
00C00000
00C00000
00C00000
00C00000
00C00000
00C00000
00FFF000
00FFF000
00000000
00000000
00000000
00000000
00000000
00000000
00000000
00000000
00000000
00000000
00000000
00000000
00000000
00000000
00000000
00000000
00000000
00000000
00000000
00000000
ENDCHAR
STARTCHAR char14
ENCODING 15
SWIDTH 960 0
DWIDTH 20 0
BBX 20 40 0 -8
BITMAP
00C00000
00C00000
00C00000
00C00000
00C00000
00C00000
00C00000
00C00000
00C00000
00C00000
00C00000
00C00000
00C00000
00C00000
00C00000
00C00000
00C00000
00C00000
FFFFF000
FFFFF000
00C00000
00C00000
00C00000
00C00000
00C00000
00C00000
00C00000
00C00000
00C00000
00C00000
00C00000
00C00000
00C00000
00C00000
00C00000
00C00000
00C00000
00C00000
00C00000
00C00000
ENDCHAR
STARTCHAR char15
ENCODING 16
SWIDTH 960 0
DWIDTH 20 0
BBX 20 40 0 -8
BITMAP
FFFFF000
FFFFF000
00000000
00000000
00000000
00000000
00000000
00000000
00000000
00000000
00000000
00000000
00000000
00000000
00000000
00000000
00000000
00000000
00000000
00000000
00000000
00000000
00000000
00000000
00000000
00000000
00000000
00000000
00000000
00000000
00000000
00000000
00000000
00000000
00000000
00000000
00000000
00000000
00000000
00000000
ENDCHAR
STARTCHAR char17
ENCODING 17
SWIDTH 960 0
DWIDTH 20 0
BBX 20 40 0 -8
BITMAP
00000000
00000000
00000000
00000000
00000000
00000000
00000000
00000000
00000000
00000000
FFFFF000
FFFFF000
00000000
00000000
00000000
00000000
00000000
00000000
00000000
00000000
00000000
00000000
00000000
00000000
00000000
00000000
00000000
00000000
00000000
00000000
00000000
00000000
00000000
00000000
00000000
00000000
00000000
00000000
00000000
00000000
ENDCHAR
STARTCHAR char18
ENCODING 18
SWIDTH 960 0
DWIDTH 20 0
BBX 20 40 0 -8
BITMAP
00000000
00000000
00000000
00000000
00000000
00000000
00000000
00000000
00000000
00000000
00000000
00000000
00000000
00000000
00000000
00000000
00000000
00000000
FFFFF000
FFFFF000
00000000
00000000
00000000
00000000
00000000
00000000
00000000
00000000
00000000
00000000
00000000
00000000
00000000
00000000
00000000
00000000
00000000
00000000
00000000
00000000
ENDCHAR
STARTCHAR char19
ENCODING 19
SWIDTH 960 0
DWIDTH 20 0
BBX 20 40 0 -8
BITMAP
00000000
00000000
00000000
00000000
00000000
00000000
00000000
00000000
00000000
00000000
00000000
00000000
00000000
00000000
00000000
00000000
00000000
00000000
00000000
00000000
00000000
00000000
00000000
00000000
00000000
00000000
00000000
00000000
FFFFF000
FFFFF000
00000000
00000000
00000000
00000000
00000000
00000000
00000000
00000000
00000000
00000000
ENDCHAR
STARTCHAR char20
ENCODING 20
SWIDTH 960 0
DWIDTH 20 0
BBX 20 40 0 -8
BITMAP
00000000
00000000
00000000
00000000
00000000
00000000
00000000
00000000
00000000
00000000
00000000
00000000
00000000
00000000
00000000
00000000
00000000
00000000
00000000
00000000
00000000
00000000
00000000
00000000
00000000
00000000
00000000
00000000
00000000
00000000
00000000
00000000
00000000
00000000
00000000
00000000
00000000
00000000
FFFFF000
FFFFF000
ENDCHAR
STARTCHAR char21
ENCODING 21
SWIDTH 960 0
DWIDTH 20 0
BBX 20 40 0 -8
BITMAP
00C00000
00C00000
00C00000
00C00000
00C00000
00C00000
00C00000
00C00000
00C00000
00C00000
00C00000
00C00000
00C00000
00C00000
00C00000
00C00000
00C00000
00C00000
00FFF000
00FFF000
00C00000
00C00000
00C00000
00C00000
00C00000
00C00000
00C00000
00C00000
00C00000
00C00000
00C00000
00C00000
00C00000
00C00000
00C00000
00C00000
00C00000
00C00000
00C00000
00C00000
ENDCHAR
STARTCHAR char22
ENCODING 22
SWIDTH 960 0
DWIDTH 20 0
BBX 20 40 0 -8
BITMAP
00C00000
00C00000
00C00000
00C00000
00C00000
00C00000
00C00000
00C00000
00C00000
00C00000
00C00000
00C00000
00C00000
00C00000
00C00000
00C00000
00C00000
00C00000
FFC00000
FFC00000
00C00000
00C00000
00C00000
00C00000
00C00000
00C00000
00C00000
00C00000
00C00000
00C00000
00C00000
00C00000
00C00000
00C00000
00C00000
00C00000
00C00000
00C00000
00C00000
00C00000
ENDCHAR
STARTCHAR char23
ENCODING 23
SWIDTH 960 0
DWIDTH 20 0
BBX 20 40 0 -8
BITMAP
00C00000
00C00000
00C00000
00C00000
00C00000
00C00000
00C00000
00C00000
00C00000
00C00000
00C00000
00C00000
00C00000
00C00000
00C00000
00C00000
00C00000
00C00000
FFFFF000
FFFFF000
00000000
00000000
00000000
00000000
00000000
00000000
00000000
00000000
00000000
00000000
00000000
00000000
00000000
00000000
00000000
00000000
00000000
00000000
00000000
00000000
ENDCHAR
STARTCHAR char24
ENCODING 24
SWIDTH 960 0
DWIDTH 20 0
BBX 20 40 0 -8
BITMAP
00000000
00000000
00000000
00000000
00000000
00000000
00000000
00000000
00000000
00000000
00000000
00000000
00000000
00000000
00000000
00000000
00000000
00000000
FFFFF000
FFFFF000
00C00000
00C00000
00C00000
00C00000
00C00000
00C00000
00C00000
00C00000
00C00000
00C00000
00C00000
00C00000
00C00000
00C00000
00C00000
00C00000
00C00000
00C00000
00C00000
00C00000
ENDCHAR
STARTCHAR char25
ENCODING 25
SWIDTH 960 0
DWIDTH 20 0
BBX 20 40 0 -8
BITMAP
00C00000
00C00000
00C00000
00C00000
00C00000
00C00000
00C00000
00C00000
00C00000
00C00000
00C00000
00C00000
00C00000
00C00000
00C00000
00C00000
00C00000
00C00000
00C00000
00C00000
00C00000
00C00000
00C00000
00C00000
00C00000
00C00000
00C00000
00C00000
00C00000
00C00000
00C00000
00C00000
00C00000
00C00000
00C00000
00C00000
00C00000
00C00000
00C00000
00C00000
ENDCHAR
STARTCHAR lessequal
ENCODING 26
SWIDTH 960 0
DWIDTH 20 0
BBX 20 40 0 -8
BITMAP
00000000
00000000
00000000
00000000
00000000
00000000
00000000
00000000
00000000
00000000
00000000
00000000
0003F000
0003F000
003F0000
003F0000
03F00000
03F00000
3F000000
3F000000
0FC00000
0FC00000
00FC0000
00FC0000
000FC000
000FC000
00000000
00000000
00000000
00000000
FFFFC000
FFFFC000
00000000
00000000
00000000
00000000
00000000
00000000
00000000
00000000
ENDCHAR
STARTCHAR greaterequal
ENCODING 27
SWIDTH 960 0
DWIDTH 20 0
BBX 20 40 0 -8
BITMAP
00000000
00000000
00000000
00000000
00000000
00000000
00000000
00000000
00000000
00000000
00000000
00000000
3F000000
3F000000
03F00000
03F00000
003F0000
003F0000
000FC000
000FC000
00FC0000
00FC0000
0FC00000
0FC00000
FC000000
FC000000
00000000
00000000
00000000
00000000
FFFFC000
FFFFC000
00000000
00000000
00000000
00000000
00000000
00000000
00000000
00000000
ENDCHAR
STARTCHAR pi
ENCODING 28
SWIDTH 960 0
DWIDTH 20 0
BBX 20 40 0 -8
BITMAP
00000000
00000000
00000000
00000000
00000000
00000000
00000000
00000000
00000000
00000000
00000000
00000000
00000000
00000000
00000000
00000000
0FFFF000
0FFFF000
03C3C000
03C3C000
03C3C000
03C3C000
03C3C000
03C3C000
03C3C000
03C3C000
0F0F0000
0F0F0000
0F0F0000
0F0F0000
0F0F0000
0F0F0000
00000000
00000000
00000000
00000000
00000000
00000000
00000000
00000000
ENDCHAR
STARTCHAR notequal
ENCODING 29
SWIDTH 960 0
DWIDTH 20 0
BBX 20 40 0 -8
BITMAP
00000000
00000000
00000000
00000000
00000000
00000000
00000000
00000000
00000000
00000000
00000000
00000000
0003C000
0003C000
0003C000
0003C000
000F0000
000F0000
0FFFF000
0FFFF000
003C0000
003C0000
00F00000
00F00000
3FFFC000
3FFFC000
03C00000
03C00000
0F000000
0F000000
0F000000
0F000000
00000000
00000000
00000000
00000000
00000000
00000000
00000000
00000000
ENDCHAR
STARTCHAR sterling
ENCODING 30
SWIDTH 960 0
DWIDTH 20 0
BBX 20 40 0 -8
BITMAP
00000000
00000000
00000000
00000000
00000000
00000000
00000000
00000000
003FC000
003FC000
00F0F000
00F0F000
00F0F000
00F0F000
03C00000
03C00000
03C00000
03C00000
3FFC0000
3FFC0000
03C00000
03C00000
03C00000
03C00000
0F000000
0F000000
FFC00000
FFC00000
CCF3C000
CCF3C000
FC3F0000
FC3F0000
00000000
00000000
00000000
00000000
00000000
00000000
00000000
00000000
ENDCHAR
STARTCHAR hyphen
ENCODING 31
SWIDTH 960 0
DWIDTH 20 0
BBX 20 40 0 -8
BITMAP
00000000
00000000
00000000
00000000
00000000
00000000
00000000
00000000
00000000
00000000
00000000
00000000
00000000
00000000
00000000
00000000
00000000
00000000
00FF0000
00FF0000
00000000
00000000
00000000
00000000
00000000
00000000
00000000
00000000
00000000
00000000
00000000
00000000
00000000
00000000
00000000
00000000
00000000
00000000
00000000
00000000
ENDCHAR
STARTCHAR space
ENCODING 32
SWIDTH 960 0
DWIDTH 20 0
BBX 20 40 0 -8
BITMAP
00000000
00000000
00000000
00000000
00000000
00000000
00000000
00000000
00000000
00000000
00000000
00000000
00000000
00000000
00000000
00000000
00000000
00000000
00000000
00000000
00000000
00000000
00000000
00000000
00000000
00000000
00000000
00000000
00000000
00000000
00000000
00000000
00000000
00000000
00000000
00000000
00000000
00000000
00000000
00000000
ENDCHAR
STARTCHAR exclam
ENCODING 33
SWIDTH 960 0
DWIDTH 20 0
BBX 20 40 0 -8
BITMAP
00000000
00000000
00000000
00000000
00000000
00000000
003C0000
003C0000
003C0000
003C0000
003C0000
003C0000
003C0000
003C0000
00F00000
00F00000
00F00000
00F00000
00F00000
00F00000
00F00000
00F00000
00F00000
00F00000
03C00000
03C00000
00000000
00000000
03C00000
03C00000
03C00000
03C00000
00000000
00000000
00000000
00000000
00000000
00000000
00000000
00000000
ENDCHAR
STARTCHAR quotedbl
ENCODING 34
SWIDTH 960 0
DWIDTH 20 0
BBX 20 40 0 -8
BITMAP
00000000
00000000
00000000
00000000
00000000
00000000
0F0F0000
0F0F0000
0F0F0000
0F0F0000
0F0F0000
0F0F0000
0C0C0000
0C0C0000
00000000
00000000
00000000
00000000
00000000
00000000
00000000
00000000
00000000
00000000
00000000
00000000
00000000
00000000
00000000
00000000
00000000
00000000
00000000
00000000
00000000
00000000
00000000
00000000
00000000
00000000
ENDCHAR
STARTCHAR numbersign
ENCODING 35
SWIDTH 960 0
DWIDTH 20 0
BBX 20 40 0 -8
BITMAP
00000000
00000000
00000000
00000000
00000000
00000000
00000000
00000000
03C3C000
03C3C000
03C3C000
03C3C000
0F0F0000
0F0F0000
3FFFC000
3FFFC000
0F0F0000
0F0F0000
0F0F0000
0F0F0000
0F0F0000
0F0F0000
3FFFC000
3FFFC000
0F0F0000
0F0F0000
3C3C0000
3C3C0000
3C3C0000
3C3C0000
00000000
00000000
00000000
00000000
00000000
00000000
00000000
00000000
00000000
00000000
ENDCHAR
STARTCHAR dollar
ENCODING 36
SWIDTH 960 0
DWIDTH 20 0
BBX 20 40 0 -8
BITMAP
00000000
00000000
00000000
00000000
00000000
00000000
003C0000
003C0000
03FFC000
03FFC000
0F3CF000
0F3CF000
3CF00000
3CF00000
3CF00000
3CF00000
3CF00000
3CF00000
0FFF0000
0FFF0000
00F3C000
00F3C000
00F3C000
00F3C000
00F3C000
00F3C000
F3CF0000
F3CF0000
3FFC0000
3FFC0000
03C00000
03C00000
00000000
00000000
00000000
00000000
00000000
00000000
00000000
00000000
ENDCHAR
STARTCHAR percent
ENCODING 37
SWIDTH 960 0
DWIDTH 20 0
BBX 20 40 0 -8
BITMAP
00000000
00000000
00000000
00000000
00000000
00000000
00000000
00000000
03F0F000
03F0F000
0F33C000
0F33C000
0CF3C000
0CF3C000
0FCF0000
0FCF0000
003C0000
003C0000
003C0000
003C0000
00F00000
00F00000
03C00000
03C00000
03CFC000
03CFC000
0FFCC000
0FFCC000
3C33C000
3C33C000
3C3F0000
3C3F0000
00000000
00000000
00000000
00000000
00000000
00000000
00000000
00000000
ENDCHAR
STARTCHAR ampersand
ENCODING 38
SWIDTH 960 0
DWIDTH 20 0
BBX 20 40 0 -8
BITMAP
00000000
00000000
00000000
00000000
00000000
00000000
00FC0000
00FC0000
03CF0000
03CF0000
03CF0000
03CF0000
0F3C0000
0F3C0000
0FF00000
0FF00000
03C00000
03C00000
0FC00000
0FC00000
3CF00000
3CF00000
3C3CF000
3C3CF000
3C0FC000
3C0FC000
F03C0000
F03C0000
FCFF0000
FCFF0000
3FC3C000
3FC3C000
00000000
00000000
00000000
00000000
00000000
00000000
00000000
00000000
ENDCHAR
STARTCHAR quotesingle
ENCODING 39
SWIDTH 960 0
DWIDTH 20 0
BBX 20 40 0 -8
BITMAP
00000000
00000000
00000000
00000000
00000000
00000000
00F00000
00F00000
00F00000
00F00000
00F00000
00F00000
03C00000
03C00000
03000000
03000000
00000000
00000000
00000000
00000000
00000000
00000000
00000000
00000000
00000000
00000000
00000000
00000000
00000000
00000000
00000000
00000000
00000000
00000000
00000000
00000000
00000000
00000000
00000000
00000000
ENDCHAR
STARTCHAR parenleft
ENCODING 40
SWIDTH 960 0
DWIDTH 20 0
BBX 20 40 0 -8
BITMAP
00000000
00000000
00000000
00000000
00000000
00000000
0003C000
0003C000
000F0000
000F0000
003C0000
003C0000
00F00000
00F00000
00F00000
00F00000
03C00000
03C00000
03C00000
03C00000
03C00000
03C00000
03C00000
03C00000
03C00000
03C00000
03C00000
03C00000
00F00000
00F00000
003C0000
003C0000
00000000
00000000
00000000
00000000
00000000
00000000
00000000
00000000
ENDCHAR
STARTCHAR parenright
ENCODING 41
SWIDTH 960 0
DWIDTH 20 0
BBX 20 40 0 -8
BITMAP
00000000
00000000
00000000
00000000
00000000
00000000
00F00000
00F00000
003C0000
003C0000
000F0000
000F0000
000F0000
000F0000
000F0000
000F0000
000F0000
000F0000
000F0000
000F0000
000F0000
000F0000
003C0000
003C0000
003C0000
003C0000
00F00000
00F00000
03C00000
03C00000
0F000000
0F000000
00000000
00000000
00000000
00000000
00000000
00000000
00000000
00000000
ENDCHAR
STARTCHAR asterisk
ENCODING 42
SWIDTH 960 0
DWIDTH 20 0
BBX 20 40 0 -8
BITMAP
00000000
00000000
00000000
00000000
00000000
00000000
00000000
00000000
00000000
00000000
00000000
00000000
0F0F0000
0F0F0000
0F0F0000
0F0F0000
03FC0000
03FC0000
FFFFC000
FFFFC000
0FF00000
0FF00000
3C3C0000
3C3C0000
3C3C0000
3C3C0000
00000000
00000000
00000000
00000000
00000000
00000000
00000000
00000000
00000000
00000000
00000000
00000000
00000000
00000000
ENDCHAR
STARTCHAR plus
ENCODING 43
SWIDTH 960 0
DWIDTH 20 0
BBX 20 40 0 -8
BITMAP
00000000
00000000
00000000
00000000
00000000
00000000
00000000
00000000
00000000
00000000
00000000
00000000
00F00000
00F00000
00F00000
00F00000
00F00000
00F00000
FFFFC000
FFFFC000
03C00000
03C00000
03C00000
03C00000
03C00000
03C00000
00000000
00000000
00000000
00000000
00000000
00000000
00000000
00000000
00000000
00000000
00000000
00000000
00000000
00000000
ENDCHAR
STARTCHAR comma
ENCODING 44
SWIDTH 960 0
DWIDTH 20 0
BBX 20 40 0 -8
BITMAP
00000000
00000000
00000000
00000000
00000000
00000000
00000000
00000000
00000000
00000000
00000000
00000000
00000000
00000000
00000000
00000000
00000000
00000000
00000000
00000000
00000000
00000000
00000000
00000000
00000000
00000000
00000000
00000000
00FC0000
00FC0000
00FC0000
00FC0000
03F00000
03F00000
00000000
00000000
00000000
00000000
00000000
00000000
ENDCHAR
STARTCHAR hyphen
ENCODING 45
SWIDTH 960 0
DWIDTH 20 0
BBX 20 40 0 -8
BITMAP
00000000
00000000
00000000
00000000
00000000
00000000
00000000
00000000
00000000
00000000
00000000
00000000
00000000
00000000
00000000
00000000
00000000
00000000
3FFFC000
3FFFC000
00000000
00000000
00000000
00000000
00000000
00000000
00000000
00000000
00000000
00000000
00000000
00000000
00000000
00000000
00000000
00000000
00000000
00000000
00000000
00000000
ENDCHAR
STARTCHAR period
ENCODING 46
SWIDTH 960 0
DWIDTH 20 0
BBX 20 40 0 -8
BITMAP
00000000
00000000
00000000
00000000
00000000
00000000
00000000
00000000
00000000
00000000
00000000
00000000
00000000
00000000
00000000
00000000
00000000
00000000
00000000
00000000
00000000
00000000
00000000
00000000
00000000
00000000
03F00000
03F00000
03F00000
03F00000
03F00000
03F00000
00000000
00000000
00000000
00000000
00000000
00000000
00000000
00000000
ENDCHAR
STARTCHAR slash
ENCODING 47
SWIDTH 960 0
DWIDTH 20 0
BBX 20 40 0 -8
BITMAP
00000000
00000000
00000000
00000000
00000000
00000000
00000000
00000000
0003C000
0003C000
000F0000
000F0000
000F0000
000F0000
003C0000
003C0000
00F00000
00F00000
00F00000
00F00000
03C00000
03C00000
0F000000
0F000000
0F000000
0F000000
3C000000
3C000000
F0000000
F0000000
F0000000
F0000000
00000000
00000000
00000000
00000000
00000000
00000000
00000000
00000000
ENDCHAR
STARTCHAR zero
ENCODING 48
SWIDTH 960 0
DWIDTH 20 0
BBX 20 40 0 -8
BITMAP
00000000
00000000
00000000
00000000
00000000
00000000
003C0000
003C0000
00FF0000
00FF0000
03C3C000
03C3C000
0F03C000
0F03C000
3C03C000
3C03C000
3C03C000
3C03C000
3C03C000
3C03C000
3C03C000
3C03C000
3C03C000
3C03C000
3C0F0000
3C0F0000
3C3C0000
3C3C0000
0FF00000
0FF00000
03C00000
03C00000
00000000
00000000
00000000
00000000
00000000
00000000
00000000
00000000
ENDCHAR
STARTCHAR one
ENCODING 49
SWIDTH 960 0
DWIDTH 20 0
BBX 20 40 0 -8
BITMAP
00000000
00000000
00000000
00000000
00000000
00000000
000F0000
000F0000
003F0000
003F0000
00FF0000
00FF0000
03CF0000
03CF0000
003C0000
003C0000
003C0000
003C0000
003C0000
003C0000
003C0000
003C0000
003C0000
003C0000
00F00000
00F00000
00F00000
00F00000
00F00000
00F00000
3FFFC000
3FFFC000
00000000
00000000
00000000
00000000
00000000
00000000
00000000
00000000
ENDCHAR
STARTCHAR two
ENCODING 50
SWIDTH 960 0
DWIDTH 20 0
BBX 20 40 0 -8
BITMAP
00000000
00000000
00000000
00000000
00000000
00000000
00FF0000
00FF0000
03C3C000
03C3C000
0F00F000
0F00F000
0F00F000
0F00F000
0003C000
0003C000
0003C000
0003C000
000F0000
000F0000
003C0000
003C0000
03F00000
03F00000
0F000000
0F000000
3C000000
3C000000
F0000000
F0000000
FFFF0000
FFFF0000
00000000
00000000
00000000
00000000
00000000
00000000
00000000
00000000
ENDCHAR
STARTCHAR three
ENCODING 51
SWIDTH 960 0
DWIDTH 20 0
BBX 20 40 0 -8
BITMAP
00000000
00000000
00000000
00000000
00000000
00000000
00FF0000
00FF0000
03C3C000
03C3C000
0F00F000
0F00F000
3C00F000
3C00F000
0003C000
0003C000
000F0000
000F0000
00FC0000
00FC0000
000F0000
000F0000
0003C000
0003C000
F003C000
F003C000
F00F0000
F00F0000
3C3C0000
3C3C0000
0FF00000
0FF00000
00000000
00000000
00000000
00000000
00000000
00000000
00000000
00000000
ENDCHAR
STARTCHAR four
ENCODING 52
SWIDTH 960 0
DWIDTH 20 0
BBX 20 40 0 -8
BITMAP
00000000
00000000
00000000
00000000
00000000
00000000
0003C000
0003C000
000FC000
000FC000
003FC000
003FC000
00F3C000
00F3C000
03CF0000
03CF0000
0F0F0000
0F0F0000
3C0F0000
3C0F0000
3C0F0000
3C0F0000
3FFFC000
3FFFC000
003C0000
003C0000
003C0000
003C0000
003C0000
003C0000
003C0000
003C0000
00000000
00000000
00000000
00000000
00000000
00000000
00000000
00000000
ENDCHAR
STARTCHAR five
ENCODING 53
SWIDTH 960 0
DWIDTH 20 0
BBX 20 40 0 -8
BITMAP
00000000
00000000
00000000
00000000
00000000
00000000
0FFFF000
0FFFF000
0F000000
0F000000
0F000000
0F000000
0F000000
0F000000
3C000000
3C000000
3CFC0000
3CFC0000
3F0F0000
3F0F0000
0003C000
0003C000
0003C000
0003C000
0003C000
0003C000
F00F0000
F00F0000
3C3C0000
3C3C0000
0FF00000
0FF00000
00000000
00000000
00000000
00000000
00000000
00000000
00000000
00000000
ENDCHAR
STARTCHAR six
ENCODING 54
SWIDTH 960 0
DWIDTH 20 0
BBX 20 40 0 -8
BITMAP
00000000
00000000
00000000
00000000
00000000
00000000
00FF0000
00FF0000
03C3C000
03C3C000
0F00C000
0F00C000
3C000000
3C000000
3C000000
3C000000
3CFC0000
3CFC0000
3F0F0000
3F0F0000
3C03C000
3C03C000
F003C000
F003C000
F003C000
F003C000
F00F0000
F00F0000
3C3C0000
3C3C0000
0FF00000
0FF00000
00000000
00000000
00000000
00000000
00000000
00000000
00000000
00000000
ENDCHAR
STARTCHAR seven
ENCODING 55
SWIDTH 960 0
DWIDTH 20 0
BBX 20 40 0 -8
BITMAP
00000000
00000000
00000000
00000000
00000000
00000000
0FFFF000
0FFFF000
0000F000
0000F000
0000F000
0000F000
0003C000
0003C000
000F0000
000F0000
000F0000
000F0000
003C0000
003C0000
00F00000
00F00000
00F00000
00F00000
03C00000
03C00000
0F000000
0F000000
0F000000
0F000000
3C000000
3C000000
00000000
00000000
00000000
00000000
00000000
00000000
00000000
00000000
ENDCHAR
STARTCHAR eight
ENCODING 56
SWIDTH 960 0
DWIDTH 20 0
BBX 20 40 0 -8
BITMAP
00000000
00000000
00000000
00000000
00000000
00000000
00FF0000
00FF0000
03C3C000
03C3C000
0F00F000
0F00F000
3C00F000
3C00F000
3C03C000
3C03C000
0F0F0000
0F0F0000
03FC0000
03FC0000
0F0F0000
0F0F0000
3C03C000
3C03C000
F003C000
F003C000
F00F0000
F00F0000
3C3C0000
3C3C0000
0FF00000
0FF00000
00000000
00000000
00000000
00000000
00000000
00000000
00000000
00000000
ENDCHAR
STARTCHAR nine
ENCODING 57
SWIDTH 960 0
DWIDTH 20 0
BBX 20 40 0 -8
BITMAP
00000000
00000000
00000000
00000000
00000000
00000000
03FC0000
03FC0000
0F0F0000
0F0F0000
3C03C000
3C03C000
3C03C000
3C03C000
F003C000
F003C000
F00F0000
F00F0000
3C3F0000
3C3F0000
0FCF0000
0FCF0000
000F0000
000F0000
000F0000
000F0000
C03C0000
C03C0000
F0F00000
F0F00000
3FC00000
3FC00000
00000000
00000000
00000000
00000000
00000000
00000000
00000000
00000000
ENDCHAR
STARTCHAR colon
ENCODING 58
SWIDTH 960 0
DWIDTH 20 0
BBX 20 40 0 -8
BITMAP
00000000
00000000
00000000
00000000
00000000
00000000
00000000
00000000
00000000
00000000
00000000
00000000
00000000
00000000
00000000
00000000
00F00000
00F00000
00F00000
00F00000
00000000
00000000
00000000
00000000
00000000
00000000
00000000
00000000
03C00000
03C00000
03C00000
03C00000
00000000
00000000
00000000
00000000
00000000
00000000
00000000
00000000
ENDCHAR
STARTCHAR semicolon
ENCODING 59
SWIDTH 960 0
DWIDTH 20 0
BBX 20 40 0 -8
BITMAP
00000000
00000000
00000000
00000000
00000000
00000000
00000000
00000000
00000000
00000000
00000000
00000000
00000000
00000000
00000000
00000000
003C0000
003C0000
003C0000
003C0000
00000000
00000000
00000000
00000000
00000000
00000000
00000000
00000000
00F00000
00F00000
00F00000
00F00000
03C00000
03C00000
00000000
00000000
00000000
00000000
00000000
00000000
ENDCHAR
STARTCHAR less
ENCODING 60
SWIDTH 960 0
DWIDTH 20 0
BBX 20 40 0 -8
BITMAP
00000000
00000000
00000000
00000000
00000000
00000000
0000C000
0000C000
0003C000
0003C000
000F0000
000F0000
00FC0000
00FC0000
03C00000
03C00000
0F000000
0F000000
3C000000
3C000000
3C000000
3C000000
0F000000
0F000000
03C00000
03C00000
00F00000
00F00000
003C0000
003C0000
000C0000
000C0000
00000000
00000000
00000000
00000000
00000000
00000000
00000000
00000000
ENDCHAR
STARTCHAR equal
ENCODING 61
SWIDTH 960 0
DWIDTH 20 0
BBX 20 40 0 -8
BITMAP
00000000
00000000
00000000
00000000
00000000
00000000
00000000
00000000
00000000
00000000
00000000
00000000
00000000
00000000
0FFFF000
0FFFF000
00000000
00000000
00000000
00000000
00000000
00000000
00000000
00000000
3FFFC000
3FFFC000
00000000
00000000
00000000
00000000
00000000
00000000
00000000
00000000
00000000
00000000
00000000
00000000
00000000
00000000
ENDCHAR
STARTCHAR greater
ENCODING 62
SWIDTH 960 0
DWIDTH 20 0
BBX 20 40 0 -8
BITMAP
00000000
00000000
00000000
00000000
00000000
00000000
03000000
03000000
03C00000
03C00000
00F00000
00F00000
003C0000
003C0000
000F0000
000F0000
0003C000
0003C000
0003C000
0003C000
000F0000
000F0000
003C0000
003C0000
03F00000
03F00000
0F000000
0F000000
3C000000
3C000000
30000000
30000000
00000000
00000000
00000000
00000000
00000000
00000000
00000000
00000000
ENDCHAR
STARTCHAR question
ENCODING 63
SWIDTH 960 0
DWIDTH 20 0
BBX 20 40 0 -8
BITMAP
00000000
00000000
00000000
00000000
00000000
00000000
00FF0000
00FF0000
03C3C000
03C3C000
0F00F000
0F00F000
3C00F000
3C00F000
0003C000
0003C000
000F0000
000F0000
003C0000
003C0000
00F00000
00F00000
00F00000
00F00000
00F00000
00F00000
00000000
00000000
03C00000
03C00000
03C00000
03C00000
00000000
00000000
00000000
00000000
00000000
00000000
00000000
00000000
ENDCHAR
STARTCHAR at
ENCODING 64
SWIDTH 960 0
DWIDTH 20 0
BBX 20 40 0 -8
BITMAP
00000000
00000000
00000000
00000000
00000000
00000000
00FF0000
00FF0000
03C3C000
03C3C000
0F00F000
0F00F000
0F0FF000
0F0FF000
3C3FF000
3C3FF000
3CF3C000
3CF3C000
3CF3C000
3CF3C000
3CF3C000
3CF3C000
3CFF0000
3CFF0000
F03C0000
F03C0000
F0000000
F0000000
3C0F0000
3C0F0000
0FFC0000
0FFC0000
00000000
00000000
00000000
00000000
00000000
00000000
00000000
00000000
ENDCHAR
STARTCHAR A
ENCODING 65
SWIDTH 960 0
DWIDTH 20 0
BBX 20 40 0 -8
BITMAP
00000000
00000000
00000000
00000000
00000000
00000000
000F0000
000F0000
003FC000
003FC000
00F0F000
00F0F000
03C0F000
03C0F000
0F00F000
0F00F000
0F00F000
0F00F000
0F00F000
0F00F000
0FFFF000
0FFFF000
0F00F000
0F00F000
3C03C000
3C03C000
3C03C000
3C03C000
3C03C000
3C03C000
3C03C000
3C03C000
00000000
00000000
00000000
00000000
00000000
00000000
00000000
00000000
ENDCHAR
STARTCHAR B
ENCODING 66
SWIDTH 960 0
DWIDTH 20 0
BBX 20 40 0 -8
BITMAP
00000000
00000000
00000000
00000000
00000000
00000000
0FFC0000
0FFC0000
0F0F0000
0F0F0000
0F03C000
0F03C000
0F03C000
0F03C000
3C0F0000
3C0F0000
3C3C0000
3C3C0000
3FFC0000
3FFC0000
3C0F0000
3C0F0000
3C03C000
3C03C000
F003C000
F003C000
F00F0000
F00F0000
F03C0000
F03C0000
FFF00000
FFF00000
00000000
00000000
00000000
00000000
00000000
00000000
00000000
00000000
ENDCHAR
STARTCHAR C
ENCODING 67
SWIDTH 960 0
DWIDTH 20 0
BBX 20 40 0 -8
BITMAP
00000000
00000000
00000000
00000000
00000000
00000000
00FF0000
00FF0000
03C3C000
03C3C000
0F00F000
0F00F000
3C000000
3C000000
3C000000
3C000000
3C000000
3C000000
3C000000
3C000000
3C000000
3C000000
F0000000
F0000000
F0000000
F0000000
F00F0000
F00F0000
3C3C0000
3C3C0000
0FF00000
0FF00000
00000000
00000000
00000000
00000000
00000000
00000000
00000000
00000000
ENDCHAR
STARTCHAR D
ENCODING 68
SWIDTH 960 0
DWIDTH 20 0
BBX 20 40 0 -8
BITMAP
00000000
00000000
00000000
00000000
00000000
00000000
0FFF0000
0FFF0000
0F03C000
0F03C000
0F00F000
0F00F000
0F00F000
0F00F000
3C03C000
3C03C000
3C03C000
3C03C000
3C03C000
3C03C000
3C03C000
3C03C000
3C03C000
3C03C000
F00F0000
F00F0000
F00F0000
F00F0000
F03C0000
F03C0000
FFF00000
FFF00000
00000000
00000000
00000000
00000000
00000000
00000000
00000000
00000000
ENDCHAR
STARTCHAR E
ENCODING 69
SWIDTH 960 0
DWIDTH 20 0
BBX 20 40 0 -8
BITMAP
00000000
00000000
00000000
00000000
00000000
00000000
0FFFF000
0FFFF000
0F000000
0F000000
0F000000
0F000000
0F000000
0F000000
3C000000
3C000000
3C000000
3C000000
3FFC0000
3FFC0000
3C000000
3C000000
3C000000
3C000000
F0000000
F0000000
F0000000
F0000000
F0000000
F0000000
FFFF0000
FFFF0000
00000000
00000000
00000000
00000000
00000000
00000000
00000000
00000000
ENDCHAR
STARTCHAR F
ENCODING 70
SWIDTH 960 0
DWIDTH 20 0
BBX 20 40 0 -8
BITMAP
00000000
00000000
00000000
00000000
00000000
00000000
0FFFF000
0FFFF000
0F000000
0F000000
0F000000
0F000000
0F000000
0F000000
3C000000
3C000000
3C000000
3C000000
3FFC0000
3FFC0000
3C000000
3C000000
3C000000
3C000000
F0000000
F0000000
F0000000
F0000000
F0000000
F0000000
F0000000
F0000000
00000000
00000000
00000000
00000000
00000000
00000000
00000000
00000000
ENDCHAR
STARTCHAR G
ENCODING 71
SWIDTH 960 0
DWIDTH 20 0
BBX 20 40 0 -8
BITMAP
00000000
00000000
00000000
00000000
00000000
00000000
00FF0000
00FF0000
03C3C000
03C3C000
0F00F000
0F00F000
0F000000
0F000000
3C000000
3C000000
3C000000
3C000000
3C3FC000
3C3FC000
3C03C000
3C03C000
3C03C000
3C03C000
F00F0000
F00F0000
F00F0000
F00F0000
3C3F0000
3C3F0000
0FF30000
0FF30000
00000000
00000000
00000000
00000000
00000000
00000000
00000000
00000000
ENDCHAR
STARTCHAR H
ENCODING 72
SWIDTH 960 0
DWIDTH 20 0
BBX 20 40 0 -8
BITMAP
00000000
00000000
00000000
00000000
00000000
00000000
0F00F000
0F00F000
0F00F000
0F00F000
0F00F000
0F00F000
0F00F000
0F00F000
3C03C000
3C03C000
3C03C000
3C03C000
3FFFC000
3FFFC000
3C03C000
3C03C000
3C03C000
3C03C000
F00F0000
F00F0000
F00F0000
F00F0000
F00F0000
F00F0000
F00F0000
F00F0000
00000000
00000000
00000000
00000000
00000000
00000000
00000000
00000000
ENDCHAR
STARTCHAR I
ENCODING 73
SWIDTH 960 0
DWIDTH 20 0
BBX 20 40 0 -8
BITMAP
00000000
00000000
00000000
00000000
00000000
00000000
0FFFF000
0FFFF000
003C0000
003C0000
003C0000
003C0000
003C0000
003C0000
00F00000
00F00000
00F00000
00F00000
00F00000
00F00000
00F00000
00F00000
00F00000
00F00000
03C00000
03C00000
03C00000
03C00000
03C00000
03C00000
FFFF0000
FFFF0000
00000000
00000000
00000000
00000000
00000000
00000000
00000000
00000000
ENDCHAR
STARTCHAR J
ENCODING 74
SWIDTH 960 0
DWIDTH 20 0
BBX 20 40 0 -8
BITMAP
00000000
00000000
00000000
00000000
00000000
00000000
003FF000
003FF000
0003C000
0003C000
0003C000
0003C000
0003C000
0003C000
000F0000
000F0000
000F0000
000F0000
000F0000
000F0000
000F0000
000F0000
000F0000
000F0000
F03C0000
F03C0000
F03C0000
F03C0000
3CF00000
3CF00000
0FC00000
0FC00000
00000000
00000000
00000000
00000000
00000000
00000000
00000000
00000000
ENDCHAR
STARTCHAR K
ENCODING 75
SWIDTH 960 0
DWIDTH 20 0
BBX 20 40 0 -8
BITMAP
00000000
00000000
00000000
00000000
00000000
00000000
0F00F000
0F00F000
0F00F000
0F00F000
0F03C000
0F03C000
0F0F0000
0F0F0000
3C3C0000
3C3C0000
3C3C0000
3C3C0000
3FF00000
3FF00000
3C3C0000
3C3C0000
3C3C0000
3C3C0000
F03C0000
F03C0000
F03C0000
F03C0000
F00F0000
F00F0000
F00F0000
F00F0000
00000000
00000000
00000000
00000000
00000000
00000000
00000000
00000000
ENDCHAR
STARTCHAR L
ENCODING 76
SWIDTH 960 0
DWIDTH 20 0
BBX 20 40 0 -8
BITMAP
00000000
00000000
00000000
00000000
00000000
00000000
0F000000
0F000000
0F000000
0F000000
0F000000
0F000000
0F000000
0F000000
3C000000
3C000000
3C000000
3C000000
3C000000
3C000000
3C000000
3C000000
3C000000
3C000000
F0000000
F0000000
F0000000
F0000000
F0000000
F0000000
FFFF0000
FFFF0000
00000000
00000000
00000000
00000000
00000000
00000000
00000000
00000000
ENDCHAR
STARTCHAR M
ENCODING 77
SWIDTH 960 0
DWIDTH 20 0
BBX 20 40 0 -8
BITMAP
00000000
00000000
00000000
00000000
00000000
00000000
0F00F000
0F00F000
0F00F000
0F00F000
0FC3F000
0FC3F000
0FC3F000
0FC3F000
3FFFC000
3FFFC000
3CF3C000
3CF3C000
3CF3C000
3CF3C000
3CF3C000
3CF3C000
3CF3C000
3CF3C000
F00F0000
F00F0000
F00F0000
F00F0000
F00F0000
F00F0000
F00F0000
F00F0000
00000000
00000000
00000000
00000000
00000000
00000000
00000000
00000000
ENDCHAR
STARTCHAR N
ENCODING 78
SWIDTH 960 0
DWIDTH 20 0
BBX 20 40 0 -8
BITMAP
00000000
00000000
00000000
00000000
00000000
00000000
0F00F000
0F00F000
0FC0F000
0FC0F000
0FC0F000
0FC0F000
3FC3C000
3FC3C000
3FC3C000
3FC3C000
3CF3C000
3CF3C000
3CF3C000
3CF3C000
3C3FC000
3C3FC000
3C3FC000
3C3FC000
F03F0000
F03F0000
F03F0000
F03F0000
F00F0000
F00F0000
F00F0000
F00F0000
00000000
00000000
00000000
00000000
00000000
00000000
00000000
00000000
ENDCHAR
STARTCHAR O
ENCODING 79
SWIDTH 960 0
DWIDTH 20 0
BBX 20 40 0 -8
BITMAP
00000000
00000000
00000000
00000000
00000000
00000000
00FF0000
00FF0000
03C3C000
03C3C000
0F00F000
0F00F000
0F00F000
0F00F000
3C03C000
3C03C000
3C03C000
3C03C000
3C03C000
3C03C000
3C03C000
3C03C000
3C03C000
3C03C000
F00F0000
F00F0000
F00F0000
F00F0000
3C3C0000
3C3C0000
0FF00000
0FF00000
00000000
00000000
00000000
00000000
00000000
00000000
00000000
00000000
ENDCHAR
STARTCHAR P
ENCODING 80
SWIDTH 960 0
DWIDTH 20 0
BBX 20 40 0 -8
BITMAP
00000000
00000000
00000000
00000000
00000000
00000000
0FFF0000
0FFF0000
0F03C000
0F03C000
0F00F000
0F00F000
0F00F000
0F00F000
3C03C000
3C03C000
3C03C000
3C03C000
3C0F0000
3C0F0000
3FFC0000
3FFC0000
3C000000
3C000000
F0000000
F0000000
F0000000
F0000000
F0000000
F0000000
F0000000
F0000000
00000000
00000000
00000000
00000000
00000000
00000000
00000000
00000000
ENDCHAR
STARTCHAR Q
ENCODING 81
SWIDTH 960 0
DWIDTH 20 0
BBX 20 40 0 -8
BITMAP
00000000
00000000
00000000
00000000
00000000
00000000
00FF0000
00FF0000
03C3C000
03C3C000
0F00F000
0F00F000
0F00F000
0F00F000
3C03C000
3C03C000
3C03C000
3C03C000
3C03C000
3C03C000
3C03C000
3C03C000
3C03C000
3C03C000
F3CF0000
F3CF0000
F0FF0000
F0FF0000
3C3C0000
3C3C0000
0FFC0000
0FFC0000
000F0000
000F0000
00000000
00000000
00000000
00000000
00000000
00000000
ENDCHAR
STARTCHAR R
ENCODING 82
SWIDTH 960 0
DWIDTH 20 0
BBX 20 40 0 -8
BITMAP
00000000
00000000
00000000
00000000
00000000
00000000
0FFF0000
0FFF0000
0F03C000
0F03C000
0F00F000
0F00F000
0F00F000
0F00F000
3C00F000
3C00F000
3C03C000
3C03C000
3C0F0000
3C0F0000
3FFC0000
3FFC0000
3CF00000
3CF00000
F03C0000
F03C0000
F03C0000
F03C0000
F00F0000
F00F0000
F00F0000
F00F0000
00000000
00000000
00000000
00000000
00000000
00000000
00000000
00000000
ENDCHAR
STARTCHAR S
ENCODING 83
SWIDTH 960 0
DWIDTH 20 0
BBX 20 40 0 -8
BITMAP
00000000
00000000
00000000
00000000
00000000
00000000
00FF0000
00FF0000
03C3C000
03C3C000
0F00F000
0F00F000
3C000000
3C000000
3C000000
3C000000
0F000000
0F000000
03FC0000
03FC0000
000F0000
000F0000
0003C000
0003C000
0003C000
0003C000
F00F0000
F00F0000
3C3C0000
3C3C0000
0FF00000
0FF00000
00000000
00000000
00000000
00000000
00000000
00000000
00000000
00000000
ENDCHAR
STARTCHAR T
ENCODING 84
SWIDTH 960 0
DWIDTH 20 0
BBX 20 40 0 -8
BITMAP
00000000
00000000
00000000
00000000
00000000
00000000
0FFFF000
0FFFF000
003C0000
003C0000
003C0000
003C0000
003C0000
003C0000
00F00000
00F00000
00F00000
00F00000
00F00000
00F00000
00F00000
00F00000
00F00000
00F00000
03C00000
03C00000
03C00000
03C00000
03C00000
03C00000
03C00000
03C00000
00000000
00000000
00000000
00000000
00000000
00000000
00000000
00000000
ENDCHAR
STARTCHAR U
ENCODING 85
SWIDTH 960 0
DWIDTH 20 0
BBX 20 40 0 -8
BITMAP
00000000
00000000
00000000
00000000
00000000
00000000
0F00F000
0F00F000
0F00F000
0F00F000
0F00F000
0F00F000
0F00F000
0F00F000
3C03C000
3C03C000
3C03C000
3C03C000
3C03C000
3C03C000
3C03C000
3C03C000
3C03C000
3C03C000
F00F0000
F00F0000
F00F0000
F00F0000
3C3C0000
3C3C0000
0FF00000
0FF00000
00000000
00000000
00000000
00000000
00000000
00000000
00000000
00000000
ENDCHAR
STARTCHAR V
ENCODING 86
SWIDTH 960 0
DWIDTH 20 0
BBX 20 40 0 -8
BITMAP
00000000
00000000
00000000
00000000
00000000
00000000
0F00F000
0F00F000
0F00F000
0F00F000
0F00F000
0F00F000
0F03C000
0F03C000
0F0F0000
0F0F0000
0F0F0000
0F0F0000
0F0F0000
0F0F0000
03FC0000
03FC0000
03FC0000
03FC0000
03F00000
03F00000
03C00000
03C00000
03C00000
03C00000
03C00000
03C00000
00000000
00000000
00000000
00000000
00000000
00000000
00000000
00000000
ENDCHAR
STARTCHAR W
ENCODING 87
SWIDTH 960 0
DWIDTH 20 0
BBX 20 40 0 -8
BITMAP
00000000
00000000
00000000
00000000
00000000
00000000
0F00F000
0F00F000
0F00F000
0F00F000
0F00F000
0F00F000
0F00F000
0F00F000
3C03C000
3C03C000
3CF3C000
3CF3C000
3CF3C000
3CF3C000
3CF3C000
3CF3C000
3FF3C000
3FF3C000
FF3F0000
FF3F0000
FC3F0000
FC3F0000
F00F0000
F00F0000
F00F0000
F00F0000
00000000
00000000
00000000
00000000
00000000
00000000
00000000
00000000
ENDCHAR
STARTCHAR X
ENCODING 88
SWIDTH 960 0
DWIDTH 20 0
BBX 20 40 0 -8
BITMAP
00000000
00000000
00000000
00000000
00000000
00000000
0F00F000
0F00F000
0F00F000
0F00F000
03C3C000
03C3C000
03CF0000
03CF0000
03FC0000
03FC0000
03FC0000
03FC0000
00F00000
00F00000
03FC0000
03FC0000
03FC0000
03FC0000
0F3C0000
0F3C0000
3C3C0000
3C3C0000
F00F0000
F00F0000
F00F0000
F00F0000
00000000
00000000
00000000
00000000
00000000
00000000
00000000
00000000
ENDCHAR
STARTCHAR Y
ENCODING 89
SWIDTH 960 0
DWIDTH 20 0
BBX 20 40 0 -8
BITMAP
00000000
00000000
00000000
00000000
00000000
00000000
0F00F000
0F00F000
0F00F000
0F00F000
0F03C000
0F03C000
0F0F0000
0F0F0000
03FC0000
03FC0000
03FC0000
03FC0000
00F00000
00F00000
00F00000
00F00000
00F00000
00F00000
03C00000
03C00000
03C00000
03C00000
03C00000
03C00000
03C00000
03C00000
00000000
00000000
00000000
00000000
00000000
00000000
00000000
00000000
ENDCHAR
STARTCHAR Z
ENCODING 90
SWIDTH 960 0
DWIDTH 20 0
BBX 20 40 0 -8
BITMAP
00000000
00000000
00000000
00000000
00000000
00000000
0FFFF000
0FFFF000
0000F000
0000F000
0003C000
0003C000
000F0000
000F0000
003C0000
003C0000
003C0000
003C0000
00F00000
00F00000
03C00000
03C00000
03C00000
03C00000
0F000000
0F000000
3C000000
3C000000
F0000000
F0000000
FFFF0000
FFFF0000
00000000
00000000
00000000
00000000
00000000
00000000
00000000
00000000
ENDCHAR
STARTCHAR bracketleft
ENCODING 91
SWIDTH 960 0
DWIDTH 20 0
BBX 20 40 0 -8
BITMAP
00000000
00000000
00000000
00000000
00000000
00000000
00FFF000
00FFF000
00F00000
00F00000
00F00000
00F00000
00F00000
00F00000
03C00000
03C00000
03C00000
03C00000
03C00000
03C00000
03C00000
03C00000
03C00000
03C00000
0F000000
0F000000
0F000000
0F000000
0F000000
0F000000
0FFF0000
0FFF0000
00000000
00000000
00000000
00000000
00000000
00000000
00000000
00000000
ENDCHAR
STARTCHAR backslash
ENCODING 92
SWIDTH 960 0
DWIDTH 20 0
BBX 20 40 0 -8
BITMAP
00000000
00000000
00000000
00000000
00000000
00000000
00000000
00000000
03C00000
03C00000
03C00000
03C00000
03C00000
03C00000
00F00000
00F00000
00F00000
00F00000
00F00000
00F00000
003C0000
003C0000
003C0000
003C0000
003C0000
003C0000
003C0000
003C0000
000F0000
000F0000
000F0000
000F0000
00000000
00000000
00000000
00000000
00000000
00000000
00000000
00000000
ENDCHAR
STARTCHAR bracketright
ENCODING 93
SWIDTH 960 0
DWIDTH 20 0
BBX 20 40 0 -8
BITMAP
00000000
00000000
00000000
00000000
00000000
00000000
03FFC000
03FFC000
0003C000
0003C000
0003C000
0003C000
0003C000
0003C000
000F0000
000F0000
000F0000
000F0000
000F0000
000F0000
000F0000
000F0000
000F0000
000F0000
003C0000
003C0000
003C0000
003C0000
003C0000
003C0000
3FFC0000
3FFC0000
00000000
00000000
00000000
00000000
00000000
00000000
00000000
00000000
ENDCHAR
STARTCHAR asciicircum
ENCODING 94
SWIDTH 960 0
DWIDTH 20 0
BBX 20 40 0 -8
BITMAP
00000000
00000000
00000000
00000000
00000000
00000000
003C0000
003C0000
00FF0000
00FF0000
0FC3C000
0FC3C000
3C03C000
3C03C000
00000000
00000000
00000000
00000000
00000000
00000000
00000000
00000000
00000000
00000000
00000000
00000000
00000000
00000000
00000000
00000000
00000000
00000000
00000000
00000000
00000000
00000000
00000000
00000000
00000000
00000000
ENDCHAR
STARTCHAR underscore
ENCODING 95
SWIDTH 960 0
DWIDTH 20 0
BBX 20 40 0 -8
BITMAP
00000000
00000000
00000000
00000000
00000000
00000000
00000000
00000000
00000000
00000000
00000000
00000000
00000000
00000000
00000000
00000000
00000000
00000000
00000000
00000000
00000000
00000000
00000000
00000000
00000000
00000000
00000000
00000000
00000000
00000000
00000000
00000000
3FFFF000
3FFFF000
00000000
00000000
00000000
00000000
00000000
00000000
ENDCHAR
STARTCHAR grave
ENCODING 96
SWIDTH 960 0
DWIDTH 20 0
BBX 20 40 0 -8
BITMAP
00000000
00000000
00000000
00000000
00000000
00000000
03C00000
03C00000
00F00000
00F00000
003C0000
003C0000
00000000
00000000
00000000
00000000
00000000
00000000
00000000
00000000
00000000
00000000
00000000
00000000
00000000
00000000
00000000
00000000
00000000
00000000
00000000
00000000
00000000
00000000
00000000
00000000
00000000
00000000
00000000
00000000
ENDCHAR
STARTCHAR a
ENCODING 97
SWIDTH 960 0
DWIDTH 20 0
BBX 20 40 0 -8
BITMAP
00000000
00000000
00000000
00000000
00000000
00000000
00000000
00000000
00000000
00000000
00000000
00000000
00000000
00000000
00000000
00000000
00FFC000
00FFC000
03C0F000
03C0F000
0000F000
0000F000
03FFF000
03FFF000
0F00F000
0F00F000
3C03C000
3C03C000
3C03C000
3C03C000
0FFCC000
0FFCC000
00000000
00000000
00000000
00000000
00000000
00000000
00000000
00000000
ENDCHAR
STARTCHAR b
ENCODING 98
SWIDTH 960 0
DWIDTH 20 0
BBX 20 40 0 -8
BITMAP
00000000
00000000
00000000
00000000
00000000
00000000
03C00000
03C00000
03C00000
03C00000
03C00000
03C00000
0F000000
0F000000
0F000000
0F000000
0F3F0000
0F3F0000
0FC3C000
0FC3C000
0F00F000
0F00F000
0F00F000
0F00F000
3C03C000
3C03C000
3C03C000
3C03C000
3F0F0000
3F0F0000
3CFC0000
3CFC0000
00000000
00000000
00000000
00000000
00000000
00000000
00000000
00000000
ENDCHAR
STARTCHAR c
ENCODING 99
SWIDTH 960 0
DWIDTH 20 0
BBX 20 40 0 -8
BITMAP
00000000
00000000
00000000
00000000
00000000
00000000
00000000
00000000
00000000
00000000
00000000
00000000
00000000
00000000
00000000
00000000
00FFC000
00FFC000
03C0F000
03C0F000
0F000000
0F000000
0F000000
0F000000
3C000000
3C000000
3C000000
3C000000
0F03C000
0F03C000
03FF0000
03FF0000
00000000
00000000
00000000
00000000
00000000
00000000
00000000
00000000
ENDCHAR
STARTCHAR d
ENCODING 100
SWIDTH 960 0
DWIDTH 20 0
BBX 20 40 0 -8
BITMAP
00000000
00000000
00000000
00000000
00000000
00000000
0000F000
0000F000
0000F000
0000F000
0000F000
0000F000
0000F000
0000F000
0003C000
0003C000
03F3C000
03F3C000
0F0FC000
0F0FC000
3C03C000
3C03C000
3C03C000
3C03C000
F00F0000
F00F0000
F00F0000
F00F0000
3C3F0000
3C3F0000
0FCF0000
0FCF0000
00000000
00000000
00000000
00000000
00000000
00000000
00000000
00000000
ENDCHAR
STARTCHAR e
ENCODING 101
SWIDTH 960 0
DWIDTH 20 0
BBX 20 40 0 -8
BITMAP
00000000
00000000
00000000
00000000
00000000
00000000
00000000
00000000
00000000
00000000
00000000
00000000
00000000
00000000
00000000
00000000
03FC0000
03FC0000
0F0F0000
0F0F0000
3C03C000
3C03C000
3FFFC000
3FFFC000
3C000000
3C000000
F0000000
F0000000
3C0F0000
3C0F0000
0FFC0000
0FFC0000
00000000
00000000
00000000
00000000
00000000
00000000
00000000
00000000
ENDCHAR
STARTCHAR f
ENCODING 102
SWIDTH 960 0
DWIDTH 20 0
BBX 20 40 0 -8
BITMAP
00000000
00000000
00000000
00000000
00000000
00000000
003FC000
003FC000
00F0F000
00F0F000
00F0F000
00F0F000
00F00000
00F00000
03C00000
03C00000
3FFC0000
3FFC0000
03C00000
03C00000
03C00000
03C00000
03C00000
03C00000
0F000000
0F000000
0F000000
0F000000
0F000000
0F000000
0F000000
0F000000
00000000
00000000
00000000
00000000
00000000
00000000
00000000
00000000
ENDCHAR
STARTCHAR g
ENCODING 103
SWIDTH 960 0
DWIDTH 20 0
BBX 20 40 0 -8
BITMAP
00000000
00000000
00000000
00000000
00000000
00000000
00000000
00000000
00000000
00000000
00000000
00000000
00000000
00000000
00000000
00000000
03FF3000
03FF3000
0F03F000
0F03F000
0F03C000
0F03C000
0F03C000
0F03C000
0F0F0000
0F0F0000
0FFC0000
0FFC0000
3C000000
3C000000
0FFF0000
0FFF0000
3C0F0000
3C0F0000
F00F0000
F00F0000
F00F0000
F00F0000
3FFC0000
3FFC0000
ENDCHAR
STARTCHAR h
ENCODING 104
SWIDTH 960 0
DWIDTH 20 0
BBX 20 40 0 -8
BITMAP
00000000
00000000
00000000
00000000
00000000
00000000
0F000000
0F000000
0F000000
0F000000
0F000000
0F000000
0F000000
0F000000
3C000000
3C000000
3CFC0000
3CFC0000
3F0F0000
3F0F0000
3C03C000
3C03C000
3C03C000
3C03C000
F00F0000
F00F0000
F00F0000
F00F0000
F00F0000
F00F0000
F00F0000
F00F0000
00000000
00000000
00000000
00000000
00000000
00000000
00000000
00000000
ENDCHAR
STARTCHAR i
ENCODING 105
SWIDTH 960 0
DWIDTH 20 0
BBX 20 40 0 -8
BITMAP
00000000
00000000
00000000
00000000
00000000
00000000
00000000
00000000
00000000
00000000
000F0000
000F0000
000F0000
000F0000
00000000
00000000
03FC0000
03FC0000
003C0000
003C0000
003C0000
003C0000
003C0000
003C0000
00F00000
00F00000
00F00000
00F00000
00F00000
00F00000
3FFFC000
3FFFC000
00000000
00000000
00000000
00000000
00000000
00000000
00000000
00000000
ENDCHAR
STARTCHAR j
ENCODING 106
SWIDTH 960 0
DWIDTH 20 0
BBX 20 40 0 -8
BITMAP
00000000
00000000
00000000
00000000
00000000
00000000
00000000
00000000
00000000
00000000
0003C000
0003C000
0003C000
0003C000
00000000
00000000
00FF0000
00FF0000
000F0000
000F0000
000F0000
000F0000
000F0000
000F0000
003C0000
003C0000
003C0000
003C0000
003C0000
003C0000
003C0000
003C0000
F03C0000
F03C0000
F03C0000
F03C0000
F03C0000
F03C0000
3FF00000
3FF00000
ENDCHAR
STARTCHAR k
ENCODING 107
SWIDTH 960 0
DWIDTH 20 0
BBX 20 40 0 -8
BITMAP
00000000
00000000
00000000
00000000
00000000
00000000
03C00000
03C00000
03C00000
03C00000
03C00000
03C00000
0F000000
0F000000
0F000000
0F000000
0F03C000
0F03C000
0F0F0000
0F0F0000
0F3C0000
0F3C0000
0FF00000
0FF00000
0FFC0000
0FFC0000
3C3C0000
3C3C0000
3C0F0000
3C0F0000
3C03C000
3C03C000
00000000
00000000
00000000
00000000
00000000
00000000
00000000
00000000
ENDCHAR
STARTCHAR l
ENCODING 108
SWIDTH 960 0
DWIDTH 20 0
BBX 20 40 0 -8
BITMAP
00000000
00000000
00000000
00000000
00000000
00000000
00FF0000
00FF0000
000F0000
000F0000
000F0000
000F0000
000F0000
000F0000
003C0000
003C0000
003C0000
003C0000
003C0000
003C0000
003C0000
003C0000
003C0000
003C0000
00F00000
00F00000
00F00000
00F00000
00F00000
00F00000
3FFFC000
3FFFC000
00000000
00000000
00000000
00000000
00000000
00000000
00000000
00000000
ENDCHAR
STARTCHAR m
ENCODING 109
SWIDTH 960 0
DWIDTH 20 0
BBX 20 40 0 -8
BITMAP
00000000
00000000
00000000
00000000
00000000
00000000
00000000
00000000
00000000
00000000
00000000
00000000
00000000
00000000
00000000
00000000
0CF3C000
0CF3C000
0FFFF000
0FFFF000
0F3CF000
0F3CF000
0F3CF000
0F3CF000
0F3CF000
0F3CF000
3CF3C000
3CF3C000
3CF3C000
3CF3C000
3CF3C000
3CF3C000
00000000
00000000
00000000
00000000
00000000
00000000
00000000
00000000
ENDCHAR
STARTCHAR n
ENCODING 110
SWIDTH 960 0
DWIDTH 20 0
BBX 20 40 0 -8
BITMAP
00000000
00000000
00000000
00000000
00000000
00000000
00000000
00000000
00000000
00000000
00000000
00000000
00000000
00000000
00000000
00000000
0F3F0000
0F3F0000
0FC3C000
0FC3C000
0F00F000
0F00F000
0F00F000
0F00F000
3C03C000
3C03C000
3C03C000
3C03C000
3C03C000
3C03C000
3C03C000
3C03C000
00000000
00000000
00000000
00000000
00000000
00000000
00000000
00000000
ENDCHAR
STARTCHAR o
ENCODING 111
SWIDTH 960 0
DWIDTH 20 0
BBX 20 40 0 -8
BITMAP
00000000
00000000
00000000
00000000
00000000
00000000
00000000
00000000
00000000
00000000
00000000
00000000
00000000
00000000
00000000
00000000
00FF0000
00FF0000
03C3C000
03C3C000
0F00F000
0F00F000
0F00F000
0F00F000
3C03C000
3C03C000
3C03C000
3C03C000
0F0F0000
0F0F0000
03FC0000
03FC0000
00000000
00000000
00000000
00000000
00000000
00000000
00000000
00000000
ENDCHAR
STARTCHAR p
ENCODING 112
SWIDTH 960 0
DWIDTH 20 0
BBX 20 40 0 -8
BITMAP
00000000
00000000
00000000
00000000
00000000
00000000
00000000
00000000
00000000
00000000
00000000
00000000
00000000
00000000
00000000
00000000
0F3F0000
0F3F0000
0FC3C000
0FC3C000
0F00F000
0F00F000
0F00F000
0F00F000
3C03C000
3C03C000
3C03C000
3C03C000
3F0F0000
3F0F0000
3CFC0000
3CFC0000
3C000000
3C000000
3C000000
3C000000
F0000000
F0000000
F0000000
F0000000
ENDCHAR
STARTCHAR q
ENCODING 113
SWIDTH 960 0
DWIDTH 20 0
BBX 20 40 0 -8
BITMAP
00000000
00000000
00000000
00000000
00000000
00000000
00000000
00000000
00000000
00000000
00000000
00000000
00000000
00000000
00000000
00000000
00FCF000
00FCF000
03C3F000
03C3F000
0F00F000
0F00F000
0F00F000
0F00F000
3C03C000
3C03C000
3C03C000
3C03C000
0F0FC000
0F0FC000
03F3C000
03F3C000
0003C000
0003C000
0003C000
0003C000
000F0000
000F0000
000F0000
000F0000
ENDCHAR
STARTCHAR r
ENCODING 114
SWIDTH 960 0
DWIDTH 20 0
BBX 20 40 0 -8
BITMAP
00000000
00000000
00000000
00000000
00000000
00000000
00000000
00000000
00000000
00000000
00000000
00000000
00000000
00000000
00000000
00000000
3CFF0000
3CFF0000
0FC3C000
0FC3C000
0F000000
0F000000
0F000000
0F000000
3C000000
3C000000
3C000000
3C000000
3C000000
3C000000
3C000000
3C000000
00000000
00000000
00000000
00000000
00000000
00000000
00000000
00000000
ENDCHAR
STARTCHAR s
ENCODING 115
SWIDTH 960 0
DWIDTH 20 0
BBX 20 40 0 -8
BITMAP
00000000
00000000
00000000
00000000
00000000
00000000
00000000
00000000
00000000
00000000
00000000
00000000
00000000
00000000
00000000
00000000
03FFC000
03FFC000
0F00F000
0F00F000
0F000000
0F000000
03FF0000
03FF0000
0003C000
0003C000
0003C000
0003C000
3C03C000
3C03C000
0FFF0000
0FFF0000
00000000
00000000
00000000
00000000
00000000
00000000
00000000
00000000
ENDCHAR
STARTCHAR t
ENCODING 116
SWIDTH 960 0
DWIDTH 20 0
BBX 20 40 0 -8
BITMAP
00000000
00000000
00000000
00000000
00000000
00000000
00000000
00000000
00000000
00000000
003C0000
003C0000
003C0000
003C0000
00F00000
00F00000
0FFF0000
0FFF0000
00F00000
00F00000
00F00000
00F00000
00F00000
00F00000
03C00000
03C00000
03C00000
03C00000
03C3C000
03C3C000
00FF0000
00FF0000
00000000
00000000
00000000
00000000
00000000
00000000
00000000
00000000
ENDCHAR
STARTCHAR u
ENCODING 117
SWIDTH 960 0
DWIDTH 20 0
BBX 20 40 0 -8
BITMAP
00000000
00000000
00000000
00000000
00000000
00000000
00000000
00000000
00000000
00000000
00000000
00000000
00000000
00000000
00000000
00000000
0F00F000
0F00F000
0F00F000
0F00F000
0F00F000
0F00F000
0F00F000
0F00F000
3C03C000
3C03C000
3C03C000
3C03C000
0F0FC000
0F0FC000
03F3C000
03F3C000
00000000
00000000
00000000
00000000
00000000
00000000
00000000
00000000
ENDCHAR
STARTCHAR v
ENCODING 118
SWIDTH 960 0
DWIDTH 20 0
BBX 20 40 0 -8
BITMAP
00000000
00000000
00000000
00000000
00000000
00000000
00000000
00000000
00000000
00000000
00000000
00000000
00000000
00000000
00000000
00000000
0F00F000
0F00F000
0F00F000
0F00F000
03C3C000
03C3C000
03C3C000
03C3C000
03FF0000
03FF0000
03FC0000
03FC0000
00F00000
00F00000
00F00000
00F00000
00000000
00000000
00000000
00000000
00000000
00000000
00000000
00000000
ENDCHAR
STARTCHAR w
ENCODING 119
SWIDTH 960 0
DWIDTH 20 0
BBX 20 40 0 -8
BITMAP
00000000
00000000
00000000
00000000
00000000
00000000
00000000
00000000
00000000
00000000
00000000
00000000
00000000
00000000
00000000
00000000
0F00F000
0F00F000
0F00F000
0F00F000
0F00F000
0F00F000
0F3CF000
0F3CF000
3CF3C000
3CF3C000
3CF3C000
3CF3C000
3FFFC000
3FFFC000
0F0F0000
0F0F0000
00000000
00000000
00000000
00000000
00000000
00000000
00000000
00000000
ENDCHAR
STARTCHAR x
ENCODING 120
SWIDTH 960 0
DWIDTH 20 0
BBX 20 40 0 -8
BITMAP
00000000
00000000
00000000
00000000
00000000
00000000
00000000
00000000
00000000
00000000
00000000
00000000
00000000
00000000
00000000
00000000
0F00F000
0F00F000
03C3C000
03C3C000
00FF0000
00FF0000
003C0000
003C0000
00F00000
00F00000
03FC0000
03FC0000
0F0F0000
0F0F0000
3C03C000
3C03C000
00000000
00000000
00000000
00000000
00000000
00000000
00000000
00000000
ENDCHAR
STARTCHAR y
ENCODING 121
SWIDTH 960 0
DWIDTH 20 0
BBX 20 40 0 -8
BITMAP
00000000
00000000
00000000
00000000
00000000
00000000
00000000
00000000
00000000
00000000
00000000
00000000
00000000
00000000
00000000
00000000
0F00F000
0F00F000
0F00F000
0F00F000
0F00F000
0F00F000
0F00F000
0F00F000
3C03C000
3C03C000
3C03C000
3C03C000
0F0FC000
0F0FC000
03F3C000
03F3C000
0003C000
0003C000
F00F0000
F00F0000
3C3C0000
3C3C0000
0FF00000
0FF00000
ENDCHAR
STARTCHAR z
ENCODING 122
SWIDTH 960 0
DWIDTH 20 0
BBX 20 40 0 -8
BITMAP
00000000
00000000
00000000
00000000
00000000
00000000
00000000
00000000
00000000
00000000
00000000
00000000
00000000
00000000
00000000
00000000
03FFF000
03FFF000
0000F000
0000F000
0003C000
0003C000
000F0000
000F0000
00FC0000
00FC0000
03C00000
03C00000
0F000000
0F000000
0FFFC000
0FFFC000
00000000
00000000
00000000
00000000
00000000
00000000
00000000
00000000
ENDCHAR
STARTCHAR braceleft
ENCODING 123
SWIDTH 960 0
DWIDTH 20 0
BBX 20 40 0 -8
BITMAP
00000000
00000000
00000000
00000000
00000000
00000000
003FC000
003FC000
00F00000
00F00000
00F00000
00F00000
03C00000
03C00000
03C00000
03C00000
03C00000
03C00000
3F000000
3F000000
03C00000
03C00000
03C00000
03C00000
03C00000
03C00000
0F000000
0F000000
0F000000
0F000000
03FC0000
03FC0000
00000000
00000000
00000000
00000000
00000000
00000000
00000000
00000000
ENDCHAR
STARTCHAR bar
ENCODING 124
SWIDTH 960 0
DWIDTH 20 0
BBX 20 40 0 -8
BITMAP
00000000
00000000
00000000
00000000
00000000
00000000
003C0000
003C0000
003C0000
003C0000
003C0000
003C0000
00F00000
00F00000
00F00000
00F00000
00F00000
00F00000
00F00000
00F00000
00F00000
00F00000
00F00000
00F00000
00F00000
00F00000
03C00000
03C00000
03C00000
03C00000
03C00000
03C00000
00000000
00000000
00000000
00000000
00000000
00000000
00000000
00000000
ENDCHAR
STARTCHAR braceright
ENCODING 125
SWIDTH 960 0
DWIDTH 20 0
BBX 20 40 0 -8
BITMAP
00000000
00000000
00000000
00000000
00000000
00000000
03FC0000
03FC0000
000F0000
000F0000
000F0000
000F0000
003C0000
003C0000
003C0000
003C0000
003C0000
003C0000
000FC000
000FC000
003C0000
003C0000
003C0000
003C0000
003C0000
003C0000
00F00000
00F00000
00F00000
00F00000
3FC00000
3FC00000
00000000
00000000
00000000
00000000
00000000
00000000
00000000
00000000
ENDCHAR
STARTCHAR asciitilde
ENCODING 126
SWIDTH 960 0
DWIDTH 20 0
BBX 20 40 0 -8
BITMAP
00000000
00000000
00000000
00000000
00000000
00000000
00000000
00000000
00000000
00000000
00000000
00000000
00000000
00000000
00000000
00000000
0FC3C000
0FC3C000
3CF3C000
3CF3C000
3C3F0000
3C3F0000
00000000
00000000
00000000
00000000
00000000
00000000
00000000
00000000
00000000
00000000
00000000
00000000
00000000
00000000
00000000
00000000
00000000
00000000
ENDCHAR
STARTCHAR Euro
ENCODING 128
SWIDTH 960 0
DWIDTH 20 0
BBX 20 40 0 -8
BITMAP
00000000
00000000
00000000
00000000
00000000
00000000
00000000
00000000
00000000
00000000
00FFC000
00FFC000
03C3C000
03C3C000
0F000000
0F000000
0F000000
0F000000
3FFF0000
3FFF0000
0F000000
0F000000
3FFC0000
3FFC0000
3C000000
3C000000
3C000000
3C000000
0F0F0000
0F0F0000
03FC0000
03FC0000
00000000
00000000
00000000
00000000
00000000
00000000
00000000
00000000
ENDCHAR
STARTCHAR comma
ENCODING 130
SWIDTH 960 0
DWIDTH 20 0
BBX 20 40 0 -8
BITMAP
00000000
00000000
00000000
00000000
00000000
00000000
00000000
00000000
00000000
00000000
00000000
00000000
00000000
00000000
00000000
00000000
00000000
00000000
00000000
00000000
00000000
00000000
00000000
00000000
00000000
00000000
00000000
00000000
003C0000
003C0000
003C0000
003C0000
00F00000
00F00000
00000000
00000000
00000000
00000000
00000000
00000000
ENDCHAR
STARTCHAR florin
ENCODING 131
SWIDTH 960 0
DWIDTH 20 0
BBX 20 40 0 -8
BITMAP
00000000
00000000
00000000
00000000
00000000
00000000
000FC000
000FC000
003CF000
003CF000
003C0000
003C0000
00F00000
00F00000
00F00000
00F00000
0FFF0000
0FFF0000
00F00000
00F00000
00F00000
00F00000
00F00000
00F00000
00F00000
00F00000
03C00000
03C00000
03C00000
03C00000
03C00000
03C00000
03C00000
03C00000
F3C00000
F3C00000
3F000000
3F000000
00000000
00000000
ENDCHAR
STARTCHAR quotedblbase
ENCODING 132
SWIDTH 960 0
DWIDTH 20 0
BBX 20 40 0 -8
BITMAP
00000000
00000000
00000000
00000000
00000000
00000000
00000000
00000000
00000000
00000000
00000000
00000000
00000000
00000000
00000000
00000000
00000000
00000000
00000000
00000000
00000000
00000000
00000000
00000000
00000000
00000000
00000000
00000000
0F0F0000
0F0F0000
0F0F0000
0F0F0000
0F0F0000
0F0F0000
3C3C0000
3C3C0000
00000000
00000000
00000000
00000000
ENDCHAR
STARTCHAR ellipsis
ENCODING 133
SWIDTH 960 0
DWIDTH 20 0
BBX 20 40 0 -8
BITMAP
00000000
00000000
00000000
00000000
00000000
00000000
00000000
00000000
00000000
00000000
00000000
00000000
00000000
00000000
00000000
00000000
00000000
00000000
00000000
00000000
00000000
00000000
00000000
00000000
00000000
00000000
00000000
00000000
3CF3C000
3CF3C000
3CF3C000
3CF3C000
00000000
00000000
00000000
00000000
00000000
00000000
00000000
00000000
ENDCHAR
STARTCHAR dagger
ENCODING 134
SWIDTH 960 0
DWIDTH 20 0
BBX 20 40 0 -8
BITMAP
00000000
00000000
00000000
00000000
00000000
00000000
00300000
00300000
00300000
00300000
00300000
00300000
00C00000
00C00000
3FFF0000
3FFF0000
00C00000
00C00000
00C00000
00C00000
00C00000
00C00000
00C00000
00C00000
00C00000
00C00000
03000000
03000000
03000000
03000000
03000000
03000000
00000000
00000000
00000000
00000000
00000000
00000000
00000000
00000000
ENDCHAR
STARTCHAR daggerdbl
ENCODING 135
SWIDTH 960 0
DWIDTH 20 0
BBX 20 40 0 -8
BITMAP
00000000
00000000
00000000
00000000
00000000
00000000
00300000
00300000
00300000
00300000
00300000
00300000
00C00000
00C00000
3FFF0000
3FFF0000
00C00000
00C00000
00C00000
00C00000
3FFF0000
3FFF0000
00C00000
00C00000
00C00000
00C00000
03000000
03000000
03000000
03000000
03000000
03000000
00000000
00000000
00000000
00000000
00000000
00000000
00000000
00000000
ENDCHAR
STARTCHAR Acircumflex
ENCODING 136
SWIDTH 960 0
DWIDTH 20 0
BBX 20 40 0 -8
BITMAP
00000000
00000000
00F00000
00F00000
03FC0000
03FC0000
0F0F0000
0F0F0000
00000000
00000000
00000000
00000000
00000000
00000000
00000000
00000000
00000000
00000000
00000000
00000000
00000000
00000000
00000000
00000000
00000000
00000000
00000000
00000000
00000000
00000000
00000000
00000000
00000000
00000000
00000000
00000000
00000000
00000000
00000000
00000000
ENDCHAR
STARTCHAR perthousand
ENCODING 137
SWIDTH 960 0
DWIDTH 20 0
BBX 20 40 0 -8
BITMAP
00000000
00000000
00000000
00000000
00000000
00000000
00000000
00000000
0300F000
0300F000
0CC3C000
0CC3C000
0CCF0000
0CCF0000
030C0000
030C0000
003C0000
003C0000
00F00000
00F00000
00C00000
00C00000
03C00000
03C00000
0F330000
0F330000
0CCCC000
0CCCC000
3CCCC000
3CCCC000
30330000
30330000
00000000
00000000
00000000
00000000
00000000
00000000
00000000
00000000
ENDCHAR
STARTCHAR Scaron
ENCODING 138
SWIDTH 960 0
DWIDTH 20 0
BBX 20 40 0 -8
BITMAP
00000000
00000000
03C3C000
03C3C000
00FF0000
00FF0000
003C0000
003C0000
00000000
00000000
03FC0000
03FC0000
0F0F0000
0F0F0000
3C03C000
3C03C000
3C000000
3C000000
0F000000
0F000000
03FC0000
03FC0000
000F0000
000F0000
0003C000
0003C000
F00F0000
F00F0000
3C3C0000
3C3C0000
0FF00000
0FF00000
00000000
00000000
00000000
00000000
00000000
00000000
00000000
00000000
ENDCHAR
STARTCHAR uni27E8
ENCODING 139
SWIDTH 960 0
DWIDTH 20 0
BBX 20 40 0 -8
BITMAP
00000000
00000000
00000000
00000000
00000000
00000000
00000000
00000000
00000000
00000000
00000000
00000000
003C0000
003C0000
00F00000
00F00000
03C00000
03C00000
0F000000
0F000000
03C00000
03C00000
00F00000
00F00000
003C0000
003C0000
00000000
00000000
00000000
00000000
00000000
00000000
00000000
00000000
00000000
00000000
00000000
00000000
00000000
00000000
ENDCHAR
STARTCHAR OE
ENCODING 140
SWIDTH 960 0
DWIDTH 20 0
BBX 20 40 0 -8
BITMAP
00000000
00000000
00000000
00000000
00000000
00000000
00FFF000
00FFF000
03CF0000
03CF0000
0F0F0000
0F0F0000
0F0F0000
0F0F0000
3C3C0000
3C3C0000
3C3C0000
3C3C0000
3C3FC000
3C3FC000
3C3C0000
3C3C0000
3C3C0000
3C3C0000
F0F00000
F0F00000
F0F00000
F0F00000
3CF00000
3CF00000
0FFF0000
0FFF0000
00000000
00000000
00000000
00000000
00000000
00000000
00000000
00000000
ENDCHAR
STARTCHAR Zcaron
ENCODING 142
SWIDTH 960 0
DWIDTH 20 0
BBX 20 40 0 -8
BITMAP
00000000
00000000
03C3C000
03C3C000
00FF0000
00FF0000
003C0000
003C0000
00000000
00000000
0FFFF000
0FFFF000
0003C000
0003C000
000F0000
000F0000
003C0000
003C0000
003C0000
003C0000
00F00000
00F00000
03C00000
03C00000
0F000000
0F000000
3C000000
3C000000
F0000000
F0000000
FFFF0000
FFFF0000
00000000
00000000
00000000
00000000
00000000
00000000
00000000
00000000
ENDCHAR
STARTCHAR quotereversed
ENCODING 145
SWIDTH 960 0
DWIDTH 20 0
BBX 20 40 0 -8
BITMAP
00000000
00000000
00000000
00000000
00000000
00000000
00FC0000
00FC0000
00FC0000
00FC0000
00F00000
00F00000
00F00000
00F00000
00000000
00000000
00000000
00000000
00000000
00000000
00000000
00000000
00000000
00000000
00000000
00000000
00000000
00000000
00000000
00000000
00000000
00000000
00000000
00000000
00000000
00000000
00000000
00000000
00000000
00000000
ENDCHAR
STARTCHAR quoteright
ENCODING 146
SWIDTH 960 0
DWIDTH 20 0
BBX 20 40 0 -8
BITMAP
00000000
00000000
00000000
00000000
00000000
00000000
00FC0000
00FC0000
00FC0000
00FC0000
003C0000
003C0000
00F00000
00F00000
00000000
00000000
00000000
00000000
00000000
00000000
00000000
00000000
00000000
00000000
00000000
00000000
00000000
00000000
00000000
00000000
00000000
00000000
00000000
00000000
00000000
00000000
00000000
00000000
00000000
00000000
ENDCHAR
STARTCHAR uni201F
ENCODING 147
SWIDTH 960 0
DWIDTH 20 0
BBX 20 40 0 -8
BITMAP
00000000
00000000
00000000
00000000
00000000
00000000
0FCFC000
0FCFC000
0FCFC000
0FCFC000
0F0F0000
0F0F0000
0F0F0000
0F0F0000
00000000
00000000
00000000
00000000
00000000
00000000
00000000
00000000
00000000
00000000
00000000
00000000
00000000
00000000
00000000
00000000
00000000
00000000
00000000
00000000
00000000
00000000
00000000
00000000
00000000
00000000
ENDCHAR
STARTCHAR quotedblright
ENCODING 148
SWIDTH 960 0
DWIDTH 20 0
BBX 20 40 0 -8
BITMAP
00000000
00000000
00000000
00000000
00000000
00000000
0FCFC000
0FCFC000
0FCFC000
0FCFC000
03C3C000
03C3C000
0F0F0000
0F0F0000
00000000
00000000
00000000
00000000
00000000
00000000
00000000
00000000
00000000
00000000
00000000
00000000
00000000
00000000
00000000
00000000
00000000
00000000
00000000
00000000
00000000
00000000
00000000
00000000
00000000
00000000
ENDCHAR
STARTCHAR uni25C6
ENCODING 149
SWIDTH 960 0
DWIDTH 20 0
BBX 20 40 0 -8
BITMAP
00000000
00000000
00000000
00000000
00000000
00000000
00000000
00000000
00000000
00000000
00000000
00000000
00000000
00000000
00C00000
00C00000
03F00000
03F00000
0FFC0000
0FFC0000
3FFF0000
3FFF0000
0FFC0000
0FFC0000
03F00000
03F00000
00C00000
00C00000
00000000
00000000
00000000
00000000
00000000
00000000
00000000
00000000
00000000
00000000
00000000
00000000
ENDCHAR
STARTCHAR endash
ENCODING 150
SWIDTH 960 0
DWIDTH 20 0
BBX 20 40 0 -8
BITMAP
00000000
00000000
00000000
00000000
00000000
00000000
00000000
00000000
00000000
00000000
00000000
00000000
00000000
00000000
00000000
00000000
00000000
00000000
0FFF0000
0FFF0000
00000000
00000000
00000000
00000000
00000000
00000000
00000000
00000000
00000000
00000000
00000000
00000000
00000000
00000000
00000000
00000000
00000000
00000000
00000000
00000000
ENDCHAR
STARTCHAR emdash
ENCODING 151
SWIDTH 960 0
DWIDTH 20 0
BBX 20 40 0 -8
BITMAP
00000000
00000000
00000000
00000000
00000000
00000000
00000000
00000000
00000000
00000000
00000000
00000000
00000000
00000000
00000000
00000000
00000000
00000000
FFFFC000
FFFFC000
00000000
00000000
00000000
00000000
00000000
00000000
00000000
00000000
00000000
00000000
00000000
00000000
00000000
00000000
00000000
00000000
00000000
00000000
00000000
00000000
ENDCHAR
STARTCHAR asciitilde
ENCODING 152
SWIDTH 960 0
DWIDTH 20 0
BBX 20 40 0 -8
BITMAP
00000000
00000000
00000000
00000000
00000000
00000000
0FC3C000
0FC3C000
3CF3C000
3CF3C000
3C3F0000
3C3F0000
00000000
00000000
00000000
00000000
00000000
00000000
00000000
00000000
00000000
00000000
00000000
00000000
00000000
00000000
00000000
00000000
00000000
00000000
00000000
00000000
00000000
00000000
00000000
00000000
00000000
00000000
00000000
00000000
ENDCHAR
STARTCHAR trademark
ENCODING 153
SWIDTH 960 0
DWIDTH 20 0
BBX 20 40 0 -8
BITMAP
00000000
00000000
00000000
00000000
3F303000
3F303000
0C3CF000
0C3CF000
0C333000
0C333000
30C0C000
30C0C000
30C0C000
30C0C000
00000000
00000000
00000000
00000000
00000000
00000000
00000000
00000000
00000000
00000000
00000000
00000000
00000000
00000000
00000000
00000000
00000000
00000000
00000000
00000000
00000000
00000000
00000000
00000000
00000000
00000000
ENDCHAR
STARTCHAR scaron
ENCODING 154
SWIDTH 960 0
DWIDTH 20 0
BBX 20 40 0 -8
BITMAP
00000000
00000000
00000000
00000000
00000000
00000000
00000000
00000000
03C3C000
03C3C000
00FF0000
00FF0000
00F00000
00F00000
00000000
00000000
0FFF0000
0FFF0000
3C03C000
3C03C000
3C000000
3C000000
0FFC0000
0FFC0000
000F0000
000F0000
000F0000
000F0000
F00F0000
F00F0000
3FFC0000
3FFC0000
00000000
00000000
00000000
00000000
00000000
00000000
00000000
00000000
ENDCHAR
STARTCHAR uni27E8
ENCODING 155
SWIDTH 960 0
DWIDTH 20 0
BBX 20 40 0 -8
BITMAP
00000000
00000000
00000000
00000000
00000000
00000000
00000000
00000000
00000000
00000000
00000000
00000000
0F000000
0F000000
03C00000
03C00000
00F00000
00F00000
003C0000
003C0000
00F00000
00F00000
03C00000
03C00000
0F000000
0F000000
00000000
00000000
00000000
00000000
00000000
00000000
00000000
00000000
00000000
00000000
00000000
00000000
00000000
00000000
ENDCHAR
STARTCHAR oe
ENCODING 156
SWIDTH 960 0
DWIDTH 20 0
BBX 20 40 0 -8
BITMAP
00000000
00000000
00000000
00000000
00000000
00000000
00000000
00000000
00000000
00000000
00000000
00000000
00000000
00000000
00000000
00000000
03FFC000
03FFC000
0F3CF000
0F3CF000
0F3CF000
0F3CF000
0F3FF000
0F3FF000
3CF00000
3CF00000
3CF00000
3CF00000
3CF3C000
3CF3C000
0FFF0000
0FFF0000
00000000
00000000
00000000
00000000
00000000
00000000
00000000
00000000
ENDCHAR
STARTCHAR zcaron
ENCODING 158
SWIDTH 960 0
DWIDTH 20 0
BBX 20 40 0 -8
BITMAP
00000000
00000000
00000000
00000000
00000000
00000000
00000000
00000000
03C3C000
03C3C000
00FF0000
00FF0000
003C0000
003C0000
00000000
00000000
0FFFC000
0FFFC000
0003C000
0003C000
000F0000
000F0000
003C0000
003C0000
03F00000
03F00000
0F000000
0F000000
3C000000
3C000000
3FFF0000
3FFF0000
00000000
00000000
00000000
00000000
00000000
00000000
00000000
00000000
ENDCHAR
STARTCHAR Ydieresis
ENCODING 159
SWIDTH 960 0
DWIDTH 20 0
BBX 20 40 0 -8
BITMAP
00000000
00000000
03C3C000
03C3C000
03C3C000
03C3C000
00000000
00000000
0F00F000
0F00F000
0F00F000
0F00F000
0F03C000
0F03C000
0F0F0000
0F0F0000
03FC0000
03FC0000
03F00000
03F00000
00F00000
00F00000
00F00000
00F00000
00F00000
00F00000
03C00000
03C00000
03C00000
03C00000
03C00000
03C00000
00000000
00000000
00000000
00000000
00000000
00000000
00000000
00000000
ENDCHAR
STARTCHAR space
ENCODING 160
SWIDTH 960 0
DWIDTH 20 0
BBX 20 40 0 -8
BITMAP
00000000
00000000
00000000
00000000
00000000
00000000
00000000
00000000
00000000
00000000
00000000
00000000
00000000
00000000
00000000
00000000
00000000
00000000
00000000
00000000
00000000
00000000
00000000
00000000
00000000
00000000
00000000
00000000
00000000
00000000
00000000
00000000
00000000
00000000
00000000
00000000
00000000
00000000
00000000
00000000
ENDCHAR
STARTCHAR exclamdown
ENCODING 161
SWIDTH 960 0
DWIDTH 20 0
BBX 20 40 0 -8
BITMAP
00000000
00000000
00000000
00000000
00000000
00000000
000F0000
000F0000
000F0000
000F0000
00000000
00000000
003C0000
003C0000
003C0000
003C0000
003C0000
003C0000
003C0000
003C0000
003C0000
003C0000
003C0000
003C0000
00F00000
00F00000
00F00000
00F00000
00F00000
00F00000
00F00000
00F00000
00000000
00000000
00000000
00000000
00000000
00000000
00000000
00000000
ENDCHAR
STARTCHAR cent
ENCODING 162
SWIDTH 960 0
DWIDTH 20 0
BBX 20 40 0 -8
BITMAP
00000000
00000000
00000000
00000000
00000000
00000000
00000000
00000000
000F0000
000F0000
000F0000
000F0000
00FF0000
00FF0000
03C3C000
03C3C000
0F00C000
0F00C000
0F000000
0F000000
0F000000
0F000000
0F03C000
0F03C000
0F0F0000
0F0F0000
03FC0000
03FC0000
00F00000
00F00000
00F00000
00F00000
00000000
00000000
00000000
00000000
00000000
00000000
00000000
00000000
ENDCHAR
STARTCHAR sterling
ENCODING 163
SWIDTH 960 0
DWIDTH 20 0
BBX 20 40 0 -8
BITMAP
00000000
00000000
00000000
00000000
00000000
00000000
00000000
00000000
003FC000
003FC000
00F0F000
00F0F000
00F0F000
00F0F000
03C00000
03C00000
03C00000
03C00000
3FFC0000
3FFC0000
03C00000
03C00000
03C00000
03C00000
0F000000
0F000000
FFC00000
FFC00000
CCF3C000
CCF3C000
FC3F0000
FC3F0000
00000000
00000000
00000000
00000000
00000000
00000000
00000000
00000000
ENDCHAR
STARTCHAR currency
ENCODING 164
SWIDTH 960 0
DWIDTH 20 0
BBX 20 40 0 -8
BITMAP
00000000
00000000
00000000
00000000
00000000
00000000
00000000
00000000
00000000
00000000
00000000
00000000
30003000
30003000
3CFCF000
3CFCF000
0FFFC000
0FFFC000
0F03C000
0F03C000
0F03C000
0F03C000
3C0F0000
3C0F0000
3FFF0000
3FFF0000
F3F3C000
F3F3C000
C000C000
C000C000
00000000
00000000
00000000
00000000
00000000
00000000
00000000
00000000
00000000
00000000
ENDCHAR
STARTCHAR yen
ENCODING 165
SWIDTH 960 0
DWIDTH 20 0
BBX 20 40 0 -8
BITMAP
00000000
00000000
00000000
00000000
00000000
00000000
00000000
00000000
00000000
00000000
3C00F000
3C00F000
3C03C000
3C03C000
0F0F0000
0F0F0000
03FC0000
03FC0000
0FFF0000
0FFF0000
00F00000
00F00000
0FFF0000
0FFF0000
00F00000
00F00000
03C00000
03C00000
03C00000
03C00000
03C00000
03C00000
00000000
00000000
00000000
00000000
00000000
00000000
00000000
00000000
ENDCHAR
STARTCHAR brokenbar
ENCODING 166
SWIDTH 960 0
DWIDTH 20 0
BBX 20 40 0 -8
BITMAP
00000000
00000000
00000000
00000000
00000000
00000000
000F0000
000F0000
000F0000
000F0000
000F0000
000F0000
003C0000
003C0000
003C0000
003C0000
00000000
00000000
00000000
00000000
00000000
00000000
003C0000
003C0000
003C0000
003C0000
00F00000
00F00000
00F00000
00F00000
00F00000
00F00000
00000000
00000000
00000000
00000000
00000000
00000000
00000000
00000000
ENDCHAR
STARTCHAR section
ENCODING 167
SWIDTH 960 0
DWIDTH 20 0
BBX 20 40 0 -8
BITMAP
00000000
00000000
00000000
00000000
00000000
00000000
00FF0000
00FF0000
03C3C000
03C3C000
0F03C000
0F03C000
0F000000
0F000000
0FF00000
0FF00000
3C3C0000
3C3C0000
0F0F0000
0F0F0000
03C3C000
03C3C000
00FF0000
00FF0000
000F0000
000F0000
3C0F0000
3C0F0000
3C3C0000
3C3C0000
0FF00000
0FF00000
00000000
00000000
00000000
00000000
00000000
00000000
00000000
00000000
ENDCHAR
STARTCHAR dieresis
ENCODING 168
SWIDTH 960 0
DWIDTH 20 0
BBX 20 40 0 -8
BITMAP
00000000
00000000
00000000
00000000
00000000
00000000
0F0F0000
0F0F0000
0F0F0000
0F0F0000
00000000
00000000
00000000
00000000
00000000
00000000
00000000
00000000
00000000
00000000
00000000
00000000
00000000
00000000
00000000
00000000
00000000
00000000
00000000
00000000
00000000
00000000
00000000
00000000
00000000
00000000
00000000
00000000
00000000
00000000
ENDCHAR
STARTCHAR copyright
ENCODING 169
SWIDTH 960 0
DWIDTH 20 0
BBX 20 40 0 -8
BITMAP
00000000
00000000
00000000
00000000
00000000
00000000
00000000
00000000
00000000
00000000
00FF0000
00FF0000
03C3C000
03C3C000
0F00F000
0F00F000
0C3C3000
0C3C3000
0CC33000
0CC33000
33C03000
33C03000
330CC000
330CC000
30F0C000
30F0C000
3C03C000
3C03C000
0F0F0000
0F0F0000
03FC0000
03FC0000
00000000
00000000
00000000
00000000
00000000
00000000
00000000
00000000
ENDCHAR
STARTCHAR ordfeminine
ENCODING 170
SWIDTH 960 0
DWIDTH 20 0
BBX 20 40 0 -8
BITMAP
00000000
00000000
00000000
00000000
00000000
00000000
00FFC000
00FFC000
0300F000
0300F000
0000F000
0000F000
0FFFC000
0FFFC000
3C03C000
3C03C000
3C03C000
3C03C000
0FFCC000
0FFCC000
00000000
00000000
3FFFC000
3FFFC000
00000000
00000000
00000000
00000000
00000000
00000000
00000000
00000000
00000000
00000000
00000000
00000000
00000000
00000000
00000000
00000000
ENDCHAR
STARTCHAR guillemotleft
ENCODING 171
SWIDTH 960 0
DWIDTH 20 0
BBX 20 40 0 -8
BITMAP
00000000
00000000
00000000
00000000
00000000
00000000
00000000
00000000
00000000
00000000
003CF000
003CF000
00F3C000
00F3C000
03CF0000
03CF0000
0F3C0000
0F3C0000
3CF00000
3CF00000
F3C00000
F3C00000
3CF00000
3CF00000
0F3C0000
0F3C0000
0F3C0000
0F3C0000
03CF0000
03CF0000
00C30000
00C30000
00000000
00000000
00000000
00000000
00000000
00000000
00000000
00000000
ENDCHAR
STARTCHAR logicalnot
ENCODING 172
SWIDTH 960 0
DWIDTH 20 0
BBX 20 40 0 -8
BITMAP
00000000
00000000
00000000
00000000
00000000
00000000
00000000
00000000
00000000
00000000
00000000
00000000
00000000
00000000
00000000
00000000
3FFFC000
3FFFC000
3FFFC000
3FFFC000
0003C000
0003C000
0003C000
0003C000
0003C000
0003C000
00000000
00000000
00000000
00000000
00000000
00000000
00000000
00000000
00000000
00000000
00000000
00000000
00000000
00000000
ENDCHAR
STARTCHAR hyphen
ENCODING 173
SWIDTH 960 0
DWIDTH 20 0
BBX 20 40 0 -8
BITMAP
00000000
00000000
00000000
00000000
00000000
00000000
00000000
00000000
00000000
00000000
00000000
00000000
00000000
00000000
00000000
00000000
00000000
00000000
0FFF0000
0FFF0000
00000000
00000000
00000000
00000000
00000000
00000000
00000000
00000000
00000000
00000000
00000000
00000000
00000000
00000000
00000000
00000000
00000000
00000000
00000000
00000000
ENDCHAR
STARTCHAR registered
ENCODING 174
SWIDTH 960 0
DWIDTH 20 0
BBX 20 40 0 -8
BITMAP
00000000
00000000
00000000
00000000
00000000
00000000
00000000
00000000
00000000
00000000
00FF0000
00FF0000
03C3C000
03C3C000
0F00F000
0F00F000
0CFF3000
0CFF3000
0CC33000
0CC33000
33FCC000
33FCC000
3330C000
3330C000
333CC000
333CC000
3C03C000
3C03C000
0F0F0000
0F0F0000
03FC0000
03FC0000
00000000
00000000
00000000
00000000
00000000
00000000
00000000
00000000
ENDCHAR
STARTCHAR macron
ENCODING 175
SWIDTH 960 0
DWIDTH 20 0
BBX 20 40 0 -8
BITMAP
00000000
00000000
00000000
00000000
3FFFC000
3FFFC000
00000000
00000000
00000000
00000000
00000000
00000000
00000000
00000000
00000000
00000000
00000000
00000000
00000000
00000000
00000000
00000000
00000000
00000000
00000000
00000000
00000000
00000000
00000000
00000000
00000000
00000000
00000000
00000000
00000000
00000000
00000000
00000000
00000000
00000000
ENDCHAR
STARTCHAR degree
ENCODING 176
SWIDTH 960 0
DWIDTH 20 0
BBX 20 40 0 -8
BITMAP
00000000
00000000
00000000
00000000
00000000
00000000
00F00000
00F00000
03FC0000
03FC0000
0F0F0000
0F0F0000
0F0F0000
0F0F0000
03FC0000
03FC0000
00F00000
00F00000
00000000
00000000
00000000
00000000
00000000
00000000
00000000
00000000
00000000
00000000
00000000
00000000
00000000
00000000
00000000
00000000
00000000
00000000
00000000
00000000
00000000
00000000
ENDCHAR
STARTCHAR plusminus
ENCODING 177
SWIDTH 960 0
DWIDTH 20 0
BBX 20 40 0 -8
BITMAP
00000000
00000000
00000000
00000000
00000000
00000000
00000000
00000000
00000000
00000000
00000000
00000000
00000000
00000000
003C0000
003C0000
003C0000
003C0000
3FFFF000
3FFFF000
00F00000
00F00000
00F00000
00F00000
00000000
00000000
3FFFC000
3FFFC000
00000000
00000000
00000000
00000000
00000000
00000000
00000000
00000000
00000000
00000000
00000000
00000000
ENDCHAR
STARTCHAR twosuperior
ENCODING 178
SWIDTH 960 0
DWIDTH 20 0
BBX 20 40 0 -8
BITMAP
00000000
00000000
00000000
00000000
00000000
00000000
00FC0000
00FC0000
03CF0000
03CF0000
000F0000
000F0000
00F00000
00F00000
03C00000
03C00000
0F000000
0F000000
0FFC0000
0FFC0000
00000000
00000000
00000000
00000000
00000000
00000000
00000000
00000000
00000000
00000000
00000000
00000000
00000000
00000000
00000000
00000000
00000000
00000000
00000000
00000000
ENDCHAR
STARTCHAR threesuperior
ENCODING 179
SWIDTH 960 0
DWIDTH 20 0
BBX 20 40 0 -8
BITMAP
00000000
00000000
00000000
00000000
00000000
00000000
00FC0000
00FC0000
03CF0000
03CF0000
000F0000
000F0000
00F00000
00F00000
003C0000
003C0000
0F3C0000
0F3C0000
03F00000
03F00000
00000000
00000000
00000000
00000000
00000000
00000000
00000000
00000000
00000000
00000000
00000000
00000000
00000000
00000000
00000000
00000000
00000000
00000000
00000000
00000000
ENDCHAR
STARTCHAR acute
ENCODING 180
SWIDTH 960 0
DWIDTH 20 0
BBX 20 40 0 -8
BITMAP
00000000
00000000
00000000
00000000
00000000
00000000
000F0000
000F0000
003C0000
003C0000
00F00000
00F00000
00000000
00000000
00000000
00000000
00000000
00000000
00000000
00000000
00000000
00000000
00000000
00000000
00000000
00000000
00000000
00000000
00000000
00000000
00000000
00000000
00000000
00000000
00000000
00000000
00000000
00000000
00000000
00000000
ENDCHAR
STARTCHAR mu
ENCODING 181
SWIDTH 960 0
DWIDTH 20 0
BBX 20 40 0 -8
BITMAP
00000000
00000000
00000000
00000000
00000000
00000000
00000000
00000000
00000000
00000000
00000000
00000000
00000000
00000000
00000000
00000000
00000000
00000000
0F03C000
0F03C000
0F03C000
0F03C000
0F03C000
0F03C000
0F03C000
0F03C000
3C0F0000
3C0F0000
3F3F0000
3F3F0000
3FF30000
3FF30000
3C000000
3C000000
3C000000
3C000000
3C000000
3C000000
00000000
00000000
ENDCHAR
STARTCHAR paragraph
ENCODING 182
SWIDTH 960 0
DWIDTH 20 0
BBX 20 40 0 -8
BITMAP
00000000
00000000
00000000
00000000
00000000
00000000
03FFF000
03FFF000
0FFFF000
0FFFF000
0FFCF000
0FFCF000
3FF3C000
3FF3C000
3FF3C000
3FF3C000
0FF3C000
0FF3C000
00F3C000
00F3C000
00F3C000
00F3C000
00F3C000
00F3C000
00F3C000
00F3C000
03CF0000
03CF0000
03CF0000
03CF0000
03CF0000
03CF0000
00000000
00000000
00000000
00000000
00000000
00000000
00000000
00000000
ENDCHAR
STARTCHAR periodcentered
ENCODING 183
SWIDTH 960 0
DWIDTH 20 0
BBX 20 40 0 -8
BITMAP
00000000
00000000
00000000
00000000
00000000
00000000
00000000
00000000
00000000
00000000
00000000
00000000
00000000
00000000
00000000
00000000
00FC0000
00FC0000
00FC0000
00FC0000
00FC0000
00FC0000
00000000
00000000
00000000
00000000
00000000
00000000
00000000
00000000
00000000
00000000
00000000
00000000
00000000
00000000
00000000
00000000
00000000
00000000
ENDCHAR
STARTCHAR cedilla
ENCODING 184
SWIDTH 960 0
DWIDTH 20 0
BBX 20 40 0 -8
BITMAP
00000000
00000000
00000000
00000000
00000000
00000000
00000000
00000000
00000000
00000000
00000000
00000000
00000000
00000000
00000000
00000000
00000000
00000000
00000000
00000000
00000000
00000000
00000000
00000000
00000000
00000000
00000000
00000000
00000000
00000000
00000000
00000000
03C00000
03C00000
00F00000
00F00000
3CF00000
3CF00000
0FC00000
0FC00000
ENDCHAR
STARTCHAR onesuperior
ENCODING 185
SWIDTH 960 0
DWIDTH 20 0
BBX 20 40 0 -8
BITMAP
00000000
00000000
00000000
00000000
00000000
00000000
00F00000
00F00000
03F00000
03F00000
00F00000
00F00000
03C00000
03C00000
03C00000
03C00000
03C00000
03C00000
0FF00000
0FF00000
00000000
00000000
00000000
00000000
00000000
00000000
00000000
00000000
00000000
00000000
00000000
00000000
00000000
00000000
00000000
00000000
00000000
00000000
00000000
00000000
ENDCHAR
STARTCHAR ordmasculine
ENCODING 186
SWIDTH 960 0
DWIDTH 20 0
BBX 20 40 0 -8
BITMAP
00000000
00000000
00000000
00000000
00000000
00000000
00FC0000
00FC0000
03CF0000
03CF0000
0F03C000
0F03C000
3C03C000
3C03C000
3C0F0000
3C0F0000
0F3C0000
0F3C0000
03F00000
03F00000
00000000
00000000
3FFF0000
3FFF0000
00000000
00000000
00000000
00000000
00000000
00000000
00000000
00000000
00000000
00000000
00000000
00000000
00000000
00000000
00000000
00000000
ENDCHAR
STARTCHAR guillemotright
ENCODING 187
SWIDTH 960 0
DWIDTH 20 0
BBX 20 40 0 -8
BITMAP
00000000
00000000
00000000
00000000
00000000
00000000
00000000
00000000
00000000
00000000
30C00000
30C00000
3CF00000
3CF00000
0F3C0000
0F3C0000
03CF0000
03CF0000
00F3C000
00F3C000
003CF000
003CF000
03F3C000
03F3C000
0F3F0000
0F3F0000
3CF00000
3CF00000
F3C00000
F3C00000
CF000000
CF000000
00000000
00000000
00000000
00000000
00000000
00000000
00000000
00000000
ENDCHAR
STARTCHAR onequarter
ENCODING 188
SWIDTH 960 0
DWIDTH 20 0
BBX 20 40 0 -8
BITMAP
00000000
00000000
00000000
00000000
00000000
00000000
03000000
03000000
0F000000
0F000000
0300C000
0300C000
0C030000
0C030000
3F0C0000
3F0C0000
00300000
00300000
00C30000
00C30000
030F0000
030F0000
0C330000
0C330000
30FF0000
30FF0000
000C0000
000C0000
000C0000
000C0000
00000000
00000000
00000000
00000000
00000000
00000000
00000000
00000000
00000000
00000000
ENDCHAR
STARTCHAR onehalf
ENCODING 189
SWIDTH 960 0
DWIDTH 20 0
BBX 20 40 0 -8
BITMAP
00000000
00000000
00000000
00000000
00000000
00000000
03000000
03000000
0F000000
0F000000
0300C000
0300C000
0C030000
0C030000
3F0C0000
3F0C0000
00300000
00300000
00CF0000
00CF0000
0330C000
0330C000
0C00C000
0C00C000
300F0000
300F0000
00300000
00300000
00FF0000
00FF0000
00000000
00000000
00000000
00000000
00000000
00000000
00000000
00000000
00000000
00000000
ENDCHAR
STARTCHAR threequarters
ENCODING 190
SWIDTH 960 0
DWIDTH 20 0
BBX 20 40 0 -8
BITMAP
00000000
00000000
00000000
00000000
00000000
00000000
0FC00000
0FC00000
00300000
00300000
03C0C000
03C0C000
00C30000
00C30000
3F0C0000
3F0C0000
00300000
00300000
00C30000
00C30000
030F0000
030F0000
0C330000
0C330000
30FFC000
30FFC000
000C0000
000C0000
000C0000
000C0000
00000000
00000000
00000000
00000000
00000000
00000000
00000000
00000000
00000000
00000000
ENDCHAR
STARTCHAR questiondown
ENCODING 191
SWIDTH 960 0
DWIDTH 20 0
BBX 20 40 0 -8
BITMAP
00000000
00000000
00000000
00000000
00000000
00000000
000F0000
000F0000
000F0000
000F0000
00000000
00000000
003C0000
003C0000
003C0000
003C0000
003C0000
003C0000
00F00000
00F00000
03C00000
03C00000
0F00F000
0F00F000
3C03C000
3C03C000
3C03C000
3C03C000
0F0F0000
0F0F0000
03FC0000
03FC0000
00000000
00000000
00000000
00000000
00000000
00000000
00000000
00000000
ENDCHAR
STARTCHAR Agrave
ENCODING 192
SWIDTH 960 0
DWIDTH 20 0
BBX 20 40 0 -8
BITMAP
00000000
00000000
00F00000
00F00000
003C0000
003C0000
000F0000
000F0000
00000000
00000000
000C0000
000C0000
00FF0000
00FF0000
03C3C000
03C3C000
0F00F000
0F00F000
0F00F000
0F00F000
0F00F000
0F00F000
0FFFF000
0FFFF000
3C03C000
3C03C000
3C03C000
3C03C000
3C03C000
3C03C000
3C03C000
3C03C000
00000000
00000000
00000000
00000000
00000000
00000000
00000000
00000000
ENDCHAR
STARTCHAR Aacute
ENCODING 193
SWIDTH 960 0
DWIDTH 20 0
BBX 20 40 0 -8
BITMAP
00000000
00000000
0000F000
0000F000
0003C000
0003C000
000F0000
000F0000
00000000
00000000
000F0000
000F0000
00FF0000
00FF0000
03C3C000
03C3C000
0F00F000
0F00F000
0F00F000
0F00F000
0F00F000
0F00F000
0FFFF000
0FFFF000
3C03C000
3C03C000
3C03C000
3C03C000
3C03C000
3C03C000
3C03C000
3C03C000
00000000
00000000
00000000
00000000
00000000
00000000
00000000
00000000
ENDCHAR
STARTCHAR Acircumflex
ENCODING 194
SWIDTH 960 0
DWIDTH 20 0
BBX 20 40 0 -8
BITMAP
00000000
00000000
000F0000
000F0000
003FC000
003FC000
00F0F000
00F0F000
00000000
00000000
000F0000
000F0000
00FF0000
00FF0000
03C3C000
03C3C000
0F00F000
0F00F000
0F00F000
0F00F000
0F00F000
0F00F000
0FFFF000
0FFFF000
3C03C000
3C03C000
3C03C000
3C03C000
3C03C000
3C03C000
3C03C000
3C03C000
00000000
00000000
00000000
00000000
00000000
00000000
00000000
00000000
ENDCHAR
STARTCHAR Atilde
ENCODING 195
SWIDTH 960 0
DWIDTH 20 0
BBX 20 40 0 -8
BITMAP
00000000
00000000
003C3000
003C3000
00FFF000
00FFF000
00C3C000
00C3C000
00000000
00000000
000F0000
000F0000
00FF0000
00FF0000
03C3C000
03C3C000
0F00F000
0F00F000
0F00F000
0F00F000
0F00F000
0F00F000
0FFFF000
0FFFF000
3C03C000
3C03C000
3C03C000
3C03C000
3C03C000
3C03C000
3C03C000
3C03C000
00000000
00000000
00000000
00000000
00000000
00000000
00000000
00000000
ENDCHAR
STARTCHAR Adieresis
ENCODING 196
SWIDTH 960 0
DWIDTH 20 0
BBX 20 40 0 -8
BITMAP
00000000
00000000
00F0F000
00F0F000
00F0F000
00F0F000
00000000
00000000
000F0000
000F0000
003FC000
003FC000
00F3C000
00F3C000
03C3C000
03C3C000
0F00F000
0F00F000
0F00F000
0F00F000
0F00F000
0F00F000
0FFFF000
0FFFF000
3C03C000
3C03C000
3C03C000
3C03C000
3C03C000
3C03C000
3C03C000
3C03C000
00000000
00000000
00000000
00000000
00000000
00000000
00000000
00000000
ENDCHAR
STARTCHAR Aring
ENCODING 197
SWIDTH 960 0
DWIDTH 20 0
BBX 20 40 0 -8
BITMAP
003FC000
003FC000
00F0F000
00F0F000
00F0F000
00F0F000
003FC000
003FC000
00000000
00000000
000F0000
000F0000
00FF0000
00FF0000
03C3C000
03C3C000
0F00F000
0F00F000
0F00F000
0F00F000
0F00F000
0F00F000
0FFFF000
0FFFF000
3C03C000
3C03C000
3C03C000
3C03C000
3C03C000
3C03C000
3C03C000
3C03C000
00000000
00000000
00000000
00000000
00000000
00000000
00000000
00000000
ENDCHAR
STARTCHAR AE
ENCODING 198
SWIDTH 960 0
DWIDTH 20 0
BBX 20 40 0 -8
BITMAP
00000000
00000000
00000000
00000000
00000000
00000000
003FF000
003FF000
00FF0000
00FF0000
03CF0000
03CF0000
0F3C0000
0F3C0000
3C3C0000
3C3C0000
3C3C0000
3C3C0000
3FFFC000
3FFFC000
3C3C0000
3C3C0000
3C3C0000
3C3C0000
3C3C0000
3C3C0000
F0F00000
F0F00000
F0F00000
F0F00000
F0FF0000
F0FF0000
00000000
00000000
00000000
00000000
00000000
00000000
00000000
00000000
ENDCHAR
STARTCHAR Ccedilla
ENCODING 199
SWIDTH 960 0
DWIDTH 20 0
BBX 20 40 0 -8
BITMAP
00000000
00000000
00000000
00000000
00000000
00000000
00FF0000
00FF0000
03C3C000
03C3C000
0F00F000
0F00F000
0F000000
0F000000
3C000000
3C000000
3C000000
3C000000
3C000000
3C000000
3C000000
3C000000
3C000000
3C000000
F0000000
F0000000
F00F0000
F00F0000
3C3C0000
3C3C0000
0FF00000
0FF00000
03C00000
03C00000
00F00000
00F00000
3CF00000
3CF00000
0FC00000
0FC00000
ENDCHAR
STARTCHAR Egrave
ENCODING 200
SWIDTH 960 0
DWIDTH 20 0
BBX 20 40 0 -8
BITMAP
00000000
00000000
03C00000
03C00000
00F00000
00F00000
003C0000
003C0000
00000000
00000000
0FFFF000
0FFFF000
0F000000
0F000000
3C000000
3C000000
3C000000
3C000000
3C000000
3C000000
3FFC0000
3FFC0000
3C000000
3C000000
F0000000
F0000000
F0000000
F0000000
F0000000
F0000000
FFFF0000
FFFF0000
00000000
00000000
00000000
00000000
00000000
00000000
00000000
00000000
ENDCHAR
STARTCHAR Eacute
ENCODING 201
SWIDTH 960 0
DWIDTH 20 0
BBX 20 40 0 -8
BITMAP
00000000
00000000
000F0000
000F0000
003C0000
003C0000
00F00000
00F00000
00000000
00000000
0FFFF000
0FFFF000
0F000000
0F000000
3C000000
3C000000
3C000000
3C000000
3C000000
3C000000
3FFC0000
3FFC0000
3C000000
3C000000
F0000000
F0000000
F0000000
F0000000
F0000000
F0000000
FFFF0000
FFFF0000
00000000
00000000
00000000
00000000
00000000
00000000
00000000
00000000
ENDCHAR
STARTCHAR Ecircumflex
ENCODING 202
SWIDTH 960 0
DWIDTH 20 0
BBX 20 40 0 -8
BITMAP
00000000
00000000
003C0000
003C0000
00FF0000
00FF0000
03C3C000
03C3C000
00000000
00000000
0FFFF000
0FFFF000
0F000000
0F000000
3C000000
3C000000
3C000000
3C000000
3C000000
3C000000
3FFC0000
3FFC0000
3C000000
3C000000
F0000000
F0000000
F0000000
F0000000
F0000000
F0000000
FFFF0000
FFFF0000
00000000
00000000
00000000
00000000
00000000
00000000
00000000
00000000
ENDCHAR
STARTCHAR Edieresis
ENCODING 203
SWIDTH 960 0
DWIDTH 20 0
BBX 20 40 0 -8
BITMAP
00000000
00000000
03C3C000
03C3C000
03C3C000
03C3C000
00000000
00000000
00000000
00000000
0FFFF000
0FFFF000
0F000000
0F000000
3C000000
3C000000
3C000000
3C000000
3C000000
3C000000
3FFC0000
3FFC0000
3C000000
3C000000
F0000000
F0000000
F0000000
F0000000
F0000000
F0000000
FFFF0000
FFFF0000
00000000
00000000
00000000
00000000
00000000
00000000
00000000
00000000
ENDCHAR
STARTCHAR Igrave
ENCODING 204
SWIDTH 960 0
DWIDTH 20 0
BBX 20 40 0 -8
BITMAP
00000000
00000000
00F00000
00F00000
003C0000
003C0000
000F0000
000F0000
00000000
00000000
03FFC000
03FFC000
003C0000
003C0000
00F00000
00F00000
00F00000
00F00000
00F00000
00F00000
00F00000
00F00000
00F00000
00F00000
03C00000
03C00000
03C00000
03C00000
03C00000
03C00000
3FFC0000
3FFC0000
00000000
00000000
00000000
00000000
00000000
00000000
00000000
00000000
ENDCHAR
STARTCHAR Iacute
ENCODING 205
SWIDTH 960 0
DWIDTH 20 0
BBX 20 40 0 -8
BITMAP
00000000
00000000
000F0000
000F0000
003C0000
003C0000
00F00000
00F00000
00000000
00000000
03FFC000
03FFC000
003C0000
003C0000
00F00000
00F00000
00F00000
00F00000
00F00000
00F00000
00F00000
00F00000
00F00000
00F00000
03C00000
03C00000
03C00000
03C00000
03C00000
03C00000
3FFC0000
3FFC0000
00000000
00000000
00000000
00000000
00000000
00000000
00000000
00000000
ENDCHAR
STARTCHAR Icircumflex
ENCODING 206
SWIDTH 960 0
DWIDTH 20 0
BBX 20 40 0 -8
BITMAP
00000000
00000000
003C0000
003C0000
00FF0000
00FF0000
03C3C000
03C3C000
00000000
00000000
03FFC000
03FFC000
003C0000
003C0000
00F00000
00F00000
00F00000
00F00000
00F00000
00F00000
00F00000
00F00000
00F00000
00F00000
03C00000
03C00000
03C00000
03C00000
03C00000
03C00000
3FFC0000
3FFC0000
00000000
00000000
00000000
00000000
00000000
00000000
00000000
00000000
ENDCHAR
STARTCHAR Idieresis
ENCODING 207
SWIDTH 960 0
DWIDTH 20 0
BBX 20 40 0 -8
BITMAP
00000000
00000000
03C3C000
03C3C000
03C3C000
03C3C000
00000000
00000000
03FFC000
03FFC000
003C0000
003C0000
003C0000
003C0000
00F00000
00F00000
00F00000
00F00000
00F00000
00F00000
00F00000
00F00000
00F00000
00F00000
03C00000
03C00000
03C00000
03C00000
03C00000
03C00000
3FFC0000
3FFC0000
00000000
00000000
00000000
00000000
00000000
00000000
00000000
00000000
ENDCHAR
STARTCHAR Eth
ENCODING 208
SWIDTH 960 0
DWIDTH 20 0
BBX 20 40 0 -8
BITMAP
00000000
00000000
00000000
00000000
00000000
00000000
0FFF0000
0FFF0000
0F03C000
0F03C000
0F00F000
0F00F000
0F00F000
0F00F000
3C03C000
3C03C000
3C03C000
3C03C000
FFC3C000
FFC3C000
3C03C000
3C03C000
3C03C000
3C03C000
F00F0000
F00F0000
F00F0000
F00F0000
F03C0000
F03C0000
FFF00000
FFF00000
00000000
00000000
00000000
00000000
00000000
00000000
00000000
00000000
ENDCHAR
STARTCHAR Ntilde
ENCODING 209
SWIDTH 960 0
DWIDTH 20 0
BBX 20 40 0 -8
BITMAP
00000000
00000000
00F0C000
00F0C000
03FFC000
03FFC000
030F0000
030F0000
00000000
00000000
0F00F000
0F00F000
0FC0F000
0FC0F000
3FC3C000
3FC3C000
3FC3C000
3FC3C000
3CF3C000
3CF3C000
3CF3C000
3CF3C000
3C3FC000
3C3FC000
F03FC000
F03FC000
F03F0000
F03F0000
F00F0000
F00F0000
F00F0000
F00F0000
00000000
00000000
00000000
00000000
00000000
00000000
00000000
00000000
ENDCHAR
STARTCHAR Ograve
ENCODING 210
SWIDTH 960 0
DWIDTH 20 0
BBX 20 40 0 -8
BITMAP
00000000
00000000
00F00000
00F00000
003C0000
003C0000
000F0000
000F0000
00000000
00000000
00FF0000
00FF0000
03CF0000
03CF0000
0F03C000
0F03C000
3C03C000
3C03C000
3C03C000
3C03C000
3C03C000
3C03C000
3C03C000
3C03C000
F00F0000
F00F0000
F00F0000
F00F0000
3C3C0000
3C3C0000
0FF00000
0FF00000
00000000
00000000
00000000
00000000
00000000
00000000
00000000
00000000
ENDCHAR
STARTCHAR Oacute
ENCODING 211
SWIDTH 960 0
DWIDTH 20 0
BBX 20 40 0 -8
BITMAP
00000000
00000000
000F0000
000F0000
003C0000
003C0000
00F00000
00F00000
00000000
00000000
00FF0000
00FF0000
03CF0000
03CF0000
0F03C000
0F03C000
3C03C000
3C03C000
3C03C000
3C03C000
3C03C000
3C03C000
3C03C000
3C03C000
F00F0000
F00F0000
F00F0000
F00F0000
3C3C0000
3C3C0000
0FF00000
0FF00000
00000000
00000000
00000000
00000000
00000000
00000000
00000000
00000000
ENDCHAR
STARTCHAR Ocircumflex
ENCODING 212
SWIDTH 960 0
DWIDTH 20 0
BBX 20 40 0 -8
BITMAP
00000000
00000000
003C0000
003C0000
00FF0000
00FF0000
03C3C000
03C3C000
00000000
00000000
00FF0000
00FF0000
03CF0000
03CF0000
0F03C000
0F03C000
3C03C000
3C03C000
3C03C000
3C03C000
3C03C000
3C03C000
3C03C000
3C03C000
F00F0000
F00F0000
F00F0000
F00F0000
3C3C0000
3C3C0000
0FF00000
0FF00000
00000000
00000000
00000000
00000000
00000000
00000000
00000000
00000000
ENDCHAR
STARTCHAR Otilde
ENCODING 213
SWIDTH 960 0
DWIDTH 20 0
BBX 20 40 0 -8
BITMAP
00000000
00000000
00F0C000
00F0C000
03FFC000
03FFC000
030F0000
030F0000
00000000
00000000
00FF0000
00FF0000
03CF0000
03CF0000
0F03C000
0F03C000
3C03C000
3C03C000
3C03C000
3C03C000
3C03C000
3C03C000
3C03C000
3C03C000
F00F0000
F00F0000
F00F0000
F00F0000
3C3C0000
3C3C0000
0FF00000
0FF00000
00000000
00000000
00000000
00000000
00000000
00000000
00000000
00000000
ENDCHAR
STARTCHAR Odieresis
ENCODING 214
SWIDTH 960 0
DWIDTH 20 0
BBX 20 40 0 -8
BITMAP
00000000
00000000
03C3C000
03C3C000
03C3C000
03C3C000
00000000
00000000
00FF0000
00FF0000
03C3C000
03C3C000
0F03C000
0F03C000
3C03C000
3C03C000
3C03C000
3C03C000
3C03C000
3C03C000
3C03C000
3C03C000
3C03C000
3C03C000
F00F0000
F00F0000
F00F0000
F00F0000
3C3C0000
3C3C0000
0FF00000
0FF00000
00000000
00000000
00000000
00000000
00000000
00000000
00000000
00000000
ENDCHAR
STARTCHAR multiply
ENCODING 215
SWIDTH 960 0
DWIDTH 20 0
BBX 20 40 0 -8
BITMAP
00000000
00000000
00000000
00000000
00000000
00000000
00000000
00000000
00000000
00000000
00000000
00000000
00000000
00000000
00000000
00000000
0C00C000
0C00C000
0F03C000
0F03C000
03CF0000
03CF0000
00FC0000
00FC0000
03FC0000
03FC0000
0F3C0000
0F3C0000
3C0F0000
3C0F0000
30030000
30030000
00000000
00000000
00000000
00000000
00000000
00000000
00000000
00000000
ENDCHAR
STARTCHAR Oslash
ENCODING 216
SWIDTH 960 0
DWIDTH 20 0
BBX 20 40 0 -8
BITMAP
00000000
00000000
00000000
00000000
00003000
00003000
00FFC000
00FFC000
03C3C000
03C3C000
0F03C000
0F03C000
3C0FC000
3C0FC000
3C33C000
3C33C000
3C33C000
3C33C000
3C33C000
3C33C000
3CC3C000
3CC3C000
3CC3C000
3CC3C000
FF0F0000
FF0F0000
FC0F0000
FC0F0000
3C3C0000
3C3C0000
3FF00000
3FF00000
C0000000
C0000000
00000000
00000000
00000000
00000000
00000000
00000000
ENDCHAR
STARTCHAR Ugrave
ENCODING 217
SWIDTH 960 0
DWIDTH 20 0
BBX 20 40 0 -8
BITMAP
00000000
00000000
00F00000
00F00000
003C0000
003C0000
000F0000
000F0000
00000000
00000000
0F00F000
0F00F000
0F00F000
0F00F000
3C03C000
3C03C000
3C03C000
3C03C000
3C03C000
3C03C000
3C03C000
3C03C000
3C03C000
3C03C000
F00F0000
F00F0000
F00F0000
F00F0000
3C3C0000
3C3C0000
0FF00000
0FF00000
00000000
00000000
00000000
00000000
00000000
00000000
00000000
00000000
ENDCHAR
STARTCHAR Uacute
ENCODING 218
SWIDTH 960 0
DWIDTH 20 0
BBX 20 40 0 -8
BITMAP
00000000
00000000
000F0000
000F0000
003C0000
003C0000
00F00000
00F00000
00000000
00000000
0F00F000
0F00F000
0F00F000
0F00F000
3C03C000
3C03C000
3C03C000
3C03C000
3C03C000
3C03C000
3C03C000
3C03C000
3C03C000
3C03C000
F00F0000
F00F0000
F00F0000
F00F0000
3C3C0000
3C3C0000
0FF00000
0FF00000
00000000
00000000
00000000
00000000
00000000
00000000
00000000
00000000
ENDCHAR
STARTCHAR Ucircumflex
ENCODING 219
SWIDTH 960 0
DWIDTH 20 0
BBX 20 40 0 -8
BITMAP
00000000
00000000
003C0000
003C0000
00FF0000
00FF0000
03C3C000
03C3C000
00000000
00000000
0F00F000
0F00F000
0F00F000
0F00F000
3C03C000
3C03C000
3C03C000
3C03C000
3C03C000
3C03C000
3C03C000
3C03C000
3C03C000
3C03C000
F00F0000
F00F0000
F00F0000
F00F0000
3C3C0000
3C3C0000
0FF00000
0FF00000
00000000
00000000
00000000
00000000
00000000
00000000
00000000
00000000
ENDCHAR
STARTCHAR Udieresis
ENCODING 220
SWIDTH 960 0
DWIDTH 20 0
BBX 20 40 0 -8
BITMAP
00000000
00000000
03C3C000
03C3C000
03C3C000
03C3C000
00000000
00000000
0F00F000
0F00F000
0F00F000
0F00F000
0F00F000
0F00F000
3C03C000
3C03C000
3C03C000
3C03C000
3C03C000
3C03C000
3C03C000
3C03C000
3C03C000
3C03C000
F00F0000
F00F0000
F00F0000
F00F0000
3C3C0000
3C3C0000
0FF00000
0FF00000
00000000
00000000
00000000
00000000
00000000
00000000
00000000
00000000
ENDCHAR
STARTCHAR Yacute
ENCODING 221
SWIDTH 960 0
DWIDTH 20 0
BBX 20 40 0 -8
BITMAP
00000000
00000000
000F0000
000F0000
003C0000
003C0000
00F00000
00F00000
00000000
00000000
0F00F000
0F00F000
0F03C000
0F03C000
0F0F0000
0F0F0000
0F0F0000
0F0F0000
03FC0000
03FC0000
03FC0000
03FC0000
00F00000
00F00000
03C00000
03C00000
03C00000
03C00000
03C00000
03C00000
03C00000
03C00000
00000000
00000000
00000000
00000000
00000000
00000000
00000000
00000000
ENDCHAR
STARTCHAR Thorn
ENCODING 222
SWIDTH 960 0
DWIDTH 20 0
BBX 20 40 0 -8
BITMAP
00000000
00000000
00000000
00000000
00000000
00000000
00F00000
00F00000
00F00000
00F00000
00F00000
00F00000
00FFC000
00FFC000
03C0F000
03C0F000
03C0F000
03C0F000
03C0F000
03C0F000
03C0F000
03C0F000
03C0F000
03C0F000
0FFFC000
0FFFC000
0F000000
0F000000
0F000000
0F000000
0F000000
0F000000
00000000
00000000
00000000
00000000
00000000
00000000
00000000
00000000
ENDCHAR
STARTCHAR germandbls
ENCODING 223
SWIDTH 960 0
DWIDTH 20 0
BBX 20 40 0 -8
BITMAP
00000000
00000000
00000000
00000000
00000000
00000000
003F0000
003F0000
00F3C000
00F3C000
03C0F000
03C0F000
0F03C000
0F03C000
0F0F0000
0F0F0000
3F3C0000
3F3C0000
0F3C0000
0F3C0000
0F0F0000
0F0F0000
0F03C000
0F03C000
3C03C000
3C03C000
3C0F0000
3C0F0000
3C3C0000
3C3C0000
3CF00000
3CF00000
00000000
00000000
00000000
00000000
00000000
00000000
00000000
00000000
ENDCHAR
STARTCHAR agrave
ENCODING 224
SWIDTH 960 0
DWIDTH 20 0
BBX 20 40 0 -8
BITMAP
00000000
00000000
00000000
00000000
00000000
00000000
00000000
00000000
003C0000
003C0000
000F0000
000F0000
000F0000
000F0000
00000000
00000000
03FFC000
03FFC000
0F00F000
0F00F000
0000F000
0000F000
03FFF000
03FFF000
0F00F000
0F00F000
3C03C000
3C03C000
3C03C000
3C03C000
0FFCC000
0FFCC000
00000000
00000000
00000000
00000000
00000000
00000000
00000000
00000000
ENDCHAR
STARTCHAR aacute
ENCODING 225
SWIDTH 960 0
DWIDTH 20 0
BBX 20 40 0 -8
BITMAP
00000000
00000000
00000000
00000000
00000000
00000000
00000000
00000000
0003C000
0003C000
003F0000
003F0000
00F00000
00F00000
00000000
00000000
03FFC000
03FFC000
0F00F000
0F00F000
0000F000
0000F000
03FFF000
03FFF000
0F00F000
0F00F000
3C03C000
3C03C000
3C03C000
3C03C000
0FFCC000
0FFCC000
00000000
00000000
00000000
00000000
00000000
00000000
00000000
00000000
ENDCHAR
STARTCHAR acircumflex
ENCODING 226
SWIDTH 960 0
DWIDTH 20 0
BBX 20 40 0 -8
BITMAP
00000000
00000000
00000000
00000000
00000000
00000000
00000000
00000000
000F0000
000F0000
00FF0000
00FF0000
03C3C000
03C3C000
00000000
00000000
03FFC000
03FFC000
0F00F000
0F00F000
0000F000
0000F000
03FFF000
03FFF000
0F00F000
0F00F000
3C03C000
3C03C000
3C03C000
3C03C000
0FFCC000
0FFCC000
00000000
00000000
00000000
00000000
00000000
00000000
00000000
00000000
ENDCHAR
STARTCHAR atilde
ENCODING 227
SWIDTH 960 0
DWIDTH 20 0
BBX 20 40 0 -8
BITMAP
00000000
00000000
00000000
00000000
00000000
00000000
00000000
00000000
003C3000
003C3000
00FFF000
00FFF000
030F0000
030F0000
00000000
00000000
03FFC000
03FFC000
0F00F000
0F00F000
0000F000
0000F000
03FFF000
03FFF000
0F00F000
0F00F000
3C03C000
3C03C000
3C03C000
3C03C000
0FFCC000
0FFCC000
00000000
00000000
00000000
00000000
00000000
00000000
00000000
00000000
ENDCHAR
STARTCHAR adieresis
ENCODING 228
SWIDTH 960 0
DWIDTH 20 0
BBX 20 40 0 -8
BITMAP
00000000
00000000
00000000
00000000
00000000
00000000
00000000
00000000
00000000
00000000
00F0F000
00F0F000
00F0F000
00F0F000
00000000
00000000
03FFC000
03FFC000
0F00F000
0F00F000
0000F000
0000F000
03FFF000
03FFF000
0F00F000
0F00F000
3C03C000
3C03C000
3C03C000
3C03C000
0FFCC000
0FFCC000
00000000
00000000
00000000
00000000
00000000
00000000
00000000
00000000
ENDCHAR
STARTCHAR aring
ENCODING 229
SWIDTH 960 0
DWIDTH 20 0
BBX 20 40 0 -8
BITMAP
00000000
00000000
00000000
00000000
00000000
00000000
003FC000
003FC000
00F0F000
00F0F000
00F0F000
00F0F000
003FC000
003FC000
00000000
00000000
03FFC000
03FFC000
0F00F000
0F00F000
0000F000
0000F000
03FFF000
03FFF000
0F00F000
0F00F000
3C03C000
3C03C000
3C03C000
3C03C000
0FFCC000
0FFCC000
00000000
00000000
00000000
00000000
00000000
00000000
00000000
00000000
ENDCHAR
STARTCHAR ae
ENCODING 230
SWIDTH 960 0
DWIDTH 20 0
BBX 20 40 0 -8
BITMAP
00000000
00000000
00000000
00000000
00000000
00000000
00000000
00000000
00000000
00000000
00000000
00000000
00000000
00000000
00000000
00000000
03F3C000
03F3C000
0C3CF000
0C3CF000
003CF000
003CF000
003FC000
003FC000
0FF00000
0FF00000
3CF00000
3CF00000
3CF0C000
3CF0C000
0F3F0000
0F3F0000
00000000
00000000
00000000
00000000
00000000
00000000
00000000
00000000
ENDCHAR
STARTCHAR ccedilla
ENCODING 231
SWIDTH 960 0
DWIDTH 20 0
BBX 20 40 0 -8
BITMAP
00000000
00000000
00000000
00000000
00000000
00000000
00000000
00000000
00000000
00000000
00000000
00000000
00000000
00000000
00000000
00000000
03FF0000
03FF0000
0F03C000
0F03C000
3C000000
3C000000
3C000000
3C000000
F0000000
F0000000
F0000000
F0000000
3C0F0000
3C0F0000
0FFC0000
0FFC0000
03C00000
03C00000
00F00000
00F00000
3CF00000
3CF00000
0FC00000
0FC00000
ENDCHAR
STARTCHAR egrave
ENCODING 232
SWIDTH 960 0
DWIDTH 20 0
BBX 20 40 0 -8
BITMAP
00000000
00000000
00000000
00000000
00000000
00000000
00000000
00000000
00F00000
00F00000
003C0000
003C0000
003C0000
003C0000
00000000
00000000
00FF0000
00FF0000
03C3C000
03C3C000
0F00F000
0F00F000
0FFFF000
0FFFF000
3C000000
3C000000
3C000000
3C000000
0F03C000
0F03C000
03FF0000
03FF0000
00000000
00000000
00000000
00000000
00000000
00000000
00000000
00000000
ENDCHAR
STARTCHAR eacute
ENCODING 233
SWIDTH 960 0
DWIDTH 20 0
BBX 20 40 0 -8
BITMAP
00000000
00000000
00000000
00000000
00000000
00000000
00000000
00000000
0000F000
0000F000
000FC000
000FC000
003C0000
003C0000
00000000
00000000
00FF0000
00FF0000
03C3C000
03C3C000
0F00F000
0F00F000
0FFFF000
0FFFF000
3C000000
3C000000
3C000000
3C000000
0F03C000
0F03C000
03FF0000
03FF0000
00000000
00000000
00000000
00000000
00000000
00000000
00000000
00000000
ENDCHAR
STARTCHAR ecircumflex
ENCODING 234
SWIDTH 960 0
DWIDTH 20 0
BBX 20 40 0 -8
BITMAP
00000000
00000000
00000000
00000000
00000000
00000000
00000000
00000000
000F0000
000F0000
00FF0000
00FF0000
03C3C000
03C3C000
00000000
00000000
00FF0000
00FF0000
03C3C000
03C3C000
0F00F000
0F00F000
0FFFF000
0FFFF000
3C000000
3C000000
3C000000
3C000000
0F03C000
0F03C000
03FF0000
03FF0000
00000000
00000000
00000000
00000000
00000000
00000000
00000000
00000000
ENDCHAR
STARTCHAR edieresis
ENCODING 235
SWIDTH 960 0
DWIDTH 20 0
BBX 20 40 0 -8
BITMAP
00000000
00000000
00000000
00000000
00000000
00000000
00000000
00000000
00000000
00000000
00F0F000
00F0F000
00F0F000
00F0F000
00000000
00000000
00FF0000
00FF0000
03C3C000
03C3C000
0F00F000
0F00F000
0FFFF000
0FFFF000
3C000000
3C000000
3C000000
3C000000
0F03C000
0F03C000
03FF0000
03FF0000
00000000
00000000
00000000
00000000
00000000
00000000
00000000
00000000
ENDCHAR
STARTCHAR igrave
ENCODING 236
SWIDTH 960 0
DWIDTH 20 0
BBX 20 40 0 -8
BITMAP
00000000
00000000
00000000
00000000
00000000
00000000
00000000
00000000
00F00000
00F00000
003C0000
003C0000
003C0000
003C0000
00000000
00000000
03FC0000
03FC0000
003C0000
003C0000
003C0000
003C0000
003C0000
003C0000
00F00000
00F00000
00F00000
00F00000
00F00000
00F00000
3FFFC000
3FFFC000
00000000
00000000
00000000
00000000
00000000
00000000
00000000
00000000
ENDCHAR
STARTCHAR iacute
ENCODING 237
SWIDTH 960 0
DWIDTH 20 0
BBX 20 40 0 -8
BITMAP
00000000
00000000
00000000
00000000
00000000
00000000
00000000
00000000
0003C000
0003C000
003F0000
003F0000
00F00000
00F00000
00000000
00000000
03FC0000
03FC0000
003C0000
003C0000
003C0000
003C0000
003C0000
003C0000
00F00000
00F00000
00F00000
00F00000
00F00000
00F00000
3FFFC000
3FFFC000
00000000
00000000
00000000
00000000
00000000
00000000
00000000
00000000
ENDCHAR
STARTCHAR icircumflex
ENCODING 238
SWIDTH 960 0
DWIDTH 20 0
BBX 20 40 0 -8
BITMAP
00000000
00000000
00000000
00000000
00000000
00000000
00000000
00000000
000F0000
000F0000
00FF0000
00FF0000
03C3C000
03C3C000
00000000
00000000
03FC0000
03FC0000
003C0000
003C0000
003C0000
003C0000
003C0000
003C0000
00F00000
00F00000
00F00000
00F00000
00F00000
00F00000
3FFFC000
3FFFC000
00000000
00000000
00000000
00000000
00000000
00000000
00000000
00000000
ENDCHAR
STARTCHAR idieresis
ENCODING 239
SWIDTH 960 0
DWIDTH 20 0
BBX 20 40 0 -8
BITMAP
00000000
00000000
00000000
00000000
00000000
00000000
00000000
00000000
00000000
00000000
03C3C000
03C3C000
03C3C000
03C3C000
00000000
00000000
03FC0000
03FC0000
003C0000
003C0000
003C0000
003C0000
003C0000
003C0000
00F00000
00F00000
00F00000
00F00000
00F00000
00F00000
3FFFC000
3FFFC000
00000000
00000000
00000000
00000000
00000000
00000000
00000000
00000000
ENDCHAR
STARTCHAR eth
ENCODING 240
SWIDTH 960 0
DWIDTH 20 0
BBX 20 40 0 -8
BITMAP
00000000
00000000
00000000
00000000
00000000
00000000
03030000
03030000
03CF0000
03CF0000
00FC0000
00FC0000
03F00000
03F00000
0F3C0000
0F3C0000
0C0F0000
0C0F0000
00FFC000
00FFC000
03C0F000
03C0F000
0F00F000
0F00F000
3C03C000
3C03C000
3C03C000
3C03C000
0F0F0000
0F0F0000
03FC0000
03FC0000
00000000
00000000
00000000
00000000
00000000
00000000
00000000
00000000
ENDCHAR
STARTCHAR ntilde
ENCODING 241
SWIDTH 960 0
DWIDTH 20 0
BBX 20 40 0 -8
BITMAP
00000000
00000000
00000000
00000000
00000000
00000000
00000000
00000000
003C3000
003C3000
00FFF000
00FFF000
030F0000
030F0000
00000000
00000000
0F3F0000
0F3F0000
0FC3C000
0FC3C000
0F00F000
0F00F000
0F00F000
0F00F000
0F00F000
0F00F000
3C03C000
3C03C000
3C03C000
3C03C000
3C03C000
3C03C000
00000000
00000000
00000000
00000000
00000000
00000000
00000000
00000000
ENDCHAR
STARTCHAR ograve
ENCODING 242
SWIDTH 960 0
DWIDTH 20 0
BBX 20 40 0 -8
BITMAP
00000000
00000000
00000000
00000000
00000000
00000000
00000000
00000000
00F00000
00F00000
003C0000
003C0000
003C0000
003C0000
00000000
00000000
00FF0000
00FF0000
03C3C000
03C3C000
0F00F000
0F00F000
0F00F000
0F00F000
3C03C000
3C03C000
3C03C000
3C03C000
0F0F0000
0F0F0000
03FC0000
03FC0000
00000000
00000000
00000000
00000000
00000000
00000000
00000000
00000000
ENDCHAR
STARTCHAR oacute
ENCODING 243
SWIDTH 960 0
DWIDTH 20 0
BBX 20 40 0 -8
BITMAP
00000000
00000000
00000000
00000000
00000000
00000000
00000000
00000000
0000F000
0000F000
000FC000
000FC000
003C0000
003C0000
00000000
00000000
00FF0000
00FF0000
03C3C000
03C3C000
0F00F000
0F00F000
0F00F000
0F00F000
3C03C000
3C03C000
3C03C000
3C03C000
0F0F0000
0F0F0000
03FC0000
03FC0000
00000000
00000000
00000000
00000000
00000000
00000000
00000000
00000000
ENDCHAR
STARTCHAR ocircumflex
ENCODING 244
SWIDTH 960 0
DWIDTH 20 0
BBX 20 40 0 -8
BITMAP
00000000
00000000
00000000
00000000
00000000
00000000
00000000
00000000
000F0000
000F0000
00FF0000
00FF0000
03C3C000
03C3C000
00000000
00000000
00FF0000
00FF0000
03C3C000
03C3C000
0F00F000
0F00F000
0F00F000
0F00F000
3C03C000
3C03C000
3C03C000
3C03C000
0F0F0000
0F0F0000
03FC0000
03FC0000
00000000
00000000
00000000
00000000
00000000
00000000
00000000
00000000
ENDCHAR
STARTCHAR otilde
ENCODING 245
SWIDTH 960 0
DWIDTH 20 0
BBX 20 40 0 -8
BITMAP
00000000
00000000
00000000
00000000
00000000
00000000
00000000
00000000
003C3000
003C3000
00FFF000
00FFF000
030F0000
030F0000
00000000
00000000
00FF0000
00FF0000
03C3C000
03C3C000
0F00F000
0F00F000
0F00F000
0F00F000
3C03C000
3C03C000
3C03C000
3C03C000
0F0F0000
0F0F0000
03FC0000
03FC0000
00000000
00000000
00000000
00000000
00000000
00000000
00000000
00000000
ENDCHAR
STARTCHAR odieresis
ENCODING 246
SWIDTH 960 0
DWIDTH 20 0
BBX 20 40 0 -8
BITMAP
00000000
00000000
00000000
00000000
00000000
00000000
00000000
00000000
00000000
00000000
00F0F000
00F0F000
00F0F000
00F0F000
00000000
00000000
00FF0000
00FF0000
03C3C000
03C3C000
0F00F000
0F00F000
0F00F000
0F00F000
3C03C000
3C03C000
3C03C000
3C03C000
0F0F0000
0F0F0000
03FC0000
03FC0000
00000000
00000000
00000000
00000000
00000000
00000000
00000000
00000000
ENDCHAR
STARTCHAR divide
ENCODING 247
SWIDTH 960 0
DWIDTH 20 0
BBX 20 40 0 -8
BITMAP
00000000
00000000
00000000
00000000
00000000
00000000
00000000
00000000
00000000
00000000
003C0000
003C0000
003C0000
003C0000
00000000
00000000
00000000
00000000
3FFFF000
3FFFF000
3FFFF000
3FFFF000
00000000
00000000
00000000
00000000
00F00000
00F00000
00F00000
00F00000
00000000
00000000
00000000
00000000
00000000
00000000
00000000
00000000
00000000
00000000
ENDCHAR
STARTCHAR oslash
ENCODING 248
SWIDTH 960 0
DWIDTH 20 0
BBX 20 40 0 -8
BITMAP
00000000
00000000
00000000
00000000
00000000
00000000
00000000
00000000
00000000
00000000
00000000
00000000
00000000
00000000
0000C000
0000C000
03FF0000
03FF0000
0F0F0000
0F0F0000
3C33C000
3C33C000
3C33C000
3C33C000
3CC3C000
3CC3C000
3F0F0000
3F0F0000
3C3C0000
3C3C0000
3FF00000
3FF00000
C0000000
C0000000
00000000
00000000
00000000
00000000
00000000
00000000
ENDCHAR
STARTCHAR ugrave
ENCODING 249
SWIDTH 960 0
DWIDTH 20 0
BBX 20 40 0 -8
BITMAP
00000000
00000000
00000000
00000000
00000000
00000000
00000000
00000000
003C0000
003C0000
000F0000
000F0000
000F0000
000F0000
00000000
00000000
0F00F000
0F00F000
0F00F000
0F00F000
0F00F000
0F00F000
0F00F000
0F00F000
3C03C000
3C03C000
3C03C000
3C03C000
0F0FC000
0F0FC000
03F3C000
03F3C000
00000000
00000000
00000000
00000000
00000000
00000000
00000000
00000000
ENDCHAR
STARTCHAR uacute
ENCODING 250
SWIDTH 960 0
DWIDTH 20 0
BBX 20 40 0 -8
BITMAP
00000000
00000000
00000000
00000000
00000000
00000000
00000000
00000000
0000F000
0000F000
000FC000
000FC000
003C0000
003C0000
00000000
00000000
0F00F000
0F00F000
0F00F000
0F00F000
0F00F000
0F00F000
0F00F000
0F00F000
3C03C000
3C03C000
3C03C000
3C03C000
0F0FC000
0F0FC000
03F3C000
03F3C000
00000000
00000000
00000000
00000000
00000000
00000000
00000000
00000000
ENDCHAR
STARTCHAR ucircumflex
ENCODING 251
SWIDTH 960 0
DWIDTH 20 0
BBX 20 40 0 -8
BITMAP
00000000
00000000
00000000
00000000
00000000
00000000
00000000
00000000
000F0000
000F0000
00FF0000
00FF0000
03C3C000
03C3C000
00000000
00000000
0F00F000
0F00F000
0F00F000
0F00F000
0F00F000
0F00F000
0F00F000
0F00F000
3C03C000
3C03C000
3C03C000
3C03C000
0F0FC000
0F0FC000
03F3C000
03F3C000
00000000
00000000
00000000
00000000
00000000
00000000
00000000
00000000
ENDCHAR
STARTCHAR udieresis
ENCODING 252
SWIDTH 960 0
DWIDTH 20 0
BBX 20 40 0 -8
BITMAP
00000000
00000000
00000000
00000000
00000000
00000000
00000000
00000000
00000000
00000000
00F0F000
00F0F000
00F0F000
00F0F000
00000000
00000000
0F00F000
0F00F000
0F00F000
0F00F000
0F00F000
0F00F000
0F00F000
0F00F000
3C03C000
3C03C000
3C03C000
3C03C000
0F0FC000
0F0FC000
03F3C000
03F3C000
00000000
00000000
00000000
00000000
00000000
00000000
00000000
00000000
ENDCHAR
STARTCHAR yacute
ENCODING 253
SWIDTH 960 0
DWIDTH 20 0
BBX 20 40 0 -8
BITMAP
00000000
00000000
00000000
00000000
00000000
00000000
00000000
00000000
0003C000
0003C000
003F0000
003F0000
00F00000
00F00000
00000000
00000000
0F00F000
0F00F000
0F00F000
0F00F000
0F00F000
0F00F000
0F00F000
0F00F000
3C03C000
3C03C000
3C03C000
3C03C000
0F0FC000
0F0FC000
03F3C000
03F3C000
0003C000
0003C000
3C03C000
3C03C000
0F0F0000
0F0F0000
03FC0000
03FC0000
ENDCHAR
STARTCHAR thorn
ENCODING 254
SWIDTH 960 0
DWIDTH 20 0
BBX 20 40 0 -8
BITMAP
00000000
00000000
00000000
00000000
00000000
00000000
00F00000
00F00000
00F00000
00F00000
00F00000
00F00000
03C00000
03C00000
03C00000
03C00000
03C00000
03C00000
03FF0000
03FF0000
03C3C000
03C3C000
03C0F000
03C0F000
0F00F000
0F00F000
0F03C000
0F03C000
0F0F0000
0F0F0000
0FFC0000
0FFC0000
0F000000
0F000000
0F000000
0F000000
0F000000
0F000000
0F000000
0F000000
ENDCHAR
STARTCHAR ydieresis
ENCODING 255
SWIDTH 960 0
DWIDTH 20 0
BBX 20 40 0 -8
BITMAP
00000000
00000000
00000000
00000000
00000000
00000000
00000000
00000000
00000000
00000000
00F0F000
00F0F000
00F0F000
00F0F000
00000000
00000000
0F00F000
0F00F000
0F00F000
0F00F000
0F00F000
0F00F000
0F00F000
0F00F000
3C03C000
3C03C000
3C03C000
3C03C000
0F0FC000
0F0FC000
03F3C000
03F3C000
0003C000
0003C000
3C03C000
3C03C000
0F0F0000
0F0F0000
03FC0000
03FC0000
ENDCHAR
ENDFONT
